<svg width="16" height="12" viewBox="0 0 16 12" fill="none" xmlns="http://www.w3.org/2000/svg">
<path fill-rule="evenodd" clip-rule="evenodd" d="M15.2351 0.0161717C15.1836 0.0289734 15.1062 0.0571681 15.0632 0.0788539C15.0203 0.100509 12.6188 2.45227 9.72671 5.30495L4.46834 10.4917L2.7101 8.75923C0.880405 6.95641 0.884968 6.96036 0.63934 6.96036C0.31245 6.96036 0 7.26923 0 7.59239C0 7.86613 0.0193151 7.88773 2.10192 9.9414C3.18838 11.0128 4.12655 11.9139 4.18671 11.9437C4.35555 12.0277 4.61718 12.0165 4.78454 11.9182C4.86184 11.8727 7.29899 9.48961 10.3972 6.42987C16.0943 0.803525 15.9986 0.902206 16 0.651693C16.0022 0.247312 15.6116 -0.0772656 15.2351 0.0161717Z" fill="white"/>
</svg>
