<svg width="15" height="20" viewBox="0 0 15 20" fill="none" xmlns="http://www.w3.org/2000/svg">
<path fill-rule="evenodd" clip-rule="evenodd" d="M4.4202 0.0523728C3.84957 0.216905 3.4317 0.729618 3.34489 1.3718C3.30976 1.63175 3.31313 1.67358 3.38032 1.81165C3.47527 2.00663 3.64617 2.11401 3.85632 2.11061C4.1382 2.10608 4.31883 1.90613 4.36511 1.54739C4.39958 1.28025 4.53844 1.13749 4.79545 1.10493C4.90122 1.09156 6.94346 1.08589 9.33374 1.09238C14.0953 1.10532 13.7546 1.08796 13.9123 1.32536C13.9683 1.40964 13.9739 1.95335 13.9828 8.16509C13.9905 13.5203 13.9829 14.9442 13.9461 15.0631C13.8921 15.2377 13.7038 15.3918 13.5444 15.3918C13.4056 15.3918 13.1615 15.5263 13.1085 15.632C12.9723 15.903 12.9997 16.1607 13.1846 16.3496C13.278 16.4449 13.3329 16.4657 13.5257 16.4788C14.1063 16.5182 14.6769 16.1078 14.9148 15.4799L15 15.255V8.25777C15 1.5721 14.997 1.2514 14.9327 1.05485C14.801 0.65218 14.4505 0.265534 14.0648 0.0975225L13.8631 0.00964671L9.24205 0.00206312C5.25998 -0.00446502 4.59326 0.00249312 4.4202 0.0523728ZM0.99022 3.58054C0.595159 3.72443 0.249352 4.08137 0.0851957 4.51477L0 4.73962V11.7368C0 18.4225 0.00300732 18.7432 0.0672616 18.9398C0.198961 19.3424 0.549499 19.7291 0.935208 19.8971L1.13692 19.985L5.73601 19.9955C10.7466 20.0069 10.5733 20.0138 10.9324 19.7895C11.2871 19.568 11.5706 19.139 11.6445 18.712C11.6696 18.5672 11.6789 16.1969 11.6723 11.6171L11.6626 4.73962L11.5774 4.51477C11.4098 4.07226 11.0641 3.72564 10.6383 3.57303C10.4737 3.51401 10.0445 3.50849 5.8156 3.511C1.53767 3.51354 1.15922 3.51897 0.99022 3.58054ZM10.3937 4.65944C10.4502 4.6906 10.5278 4.76534 10.5661 4.82558C10.6338 4.9321 10.6357 5.12083 10.6357 11.7386C10.6357 18.1727 10.6322 18.5478 10.571 18.6473C10.5354 18.7052 10.4619 18.7836 10.4076 18.8215C10.3146 18.8864 10.0482 18.8904 5.85125 18.8904C1.02829 18.8904 1.23183 18.8994 1.09287 18.6813C1.03009 18.5827 1.02642 18.2521 1.01732 11.8292C1.00973 6.48161 1.01736 5.04964 1.054 4.93112C1.08282 4.83789 1.14715 4.7479 1.22487 4.6922L1.34949 4.6028H5.82022C9.65237 4.6028 10.3056 4.61089 10.3937 4.65944Z" fill="#555555"/>
</svg>
