<svg width="23" height="13" viewBox="0 0 23 13" fill="none" xmlns="http://www.w3.org/2000/svg">
<path fill-rule="evenodd" clip-rule="evenodd" d="M10.5795 0.0240308C8.04182 0.327301 5.58277 1.47465 2.86832 3.62193C2.14725 4.19233 0.25571 5.98022 0.093526 6.24468C-0.10469 6.56783 -0.0391867 6.68649 0.798332 7.522C3.82247 10.5389 6.92091 12.3519 10.018 12.9167C10.6268 13.0278 12.3742 13.0278 12.9831 12.9167C15.4668 12.4638 17.806 11.2878 20.3735 9.20151C20.9938 8.69745 22.765 6.99649 22.9063 6.76914C23.0826 6.48554 23.0404 6.37361 22.5162 5.73354C21.6961 4.73217 20.6252 3.7051 19.5542 2.89262C17.4468 1.29406 15.1973 0.345045 12.8433 0.0615299C12.3438 0.00139161 10.9608 -0.02151 10.5795 0.0240308ZM12.444 0.958841C14.53 1.14411 16.6446 1.98246 18.6439 3.41669C19.622 4.11838 20.7486 5.14527 21.5547 6.06986C21.7328 6.27418 21.8785 6.46193 21.8785 6.48706C21.8785 6.54143 20.8032 7.57489 20.2612 8.0414C17.4482 10.4625 14.7896 11.7951 12.2418 12.0609C9.16606 12.3818 5.40563 10.6221 1.79741 7.17341L1.10006 6.50691L1.79866 5.8404C4.13983 3.60681 6.46041 2.11362 8.71316 1.39117C10.0286 0.96933 11.128 0.84193 12.444 0.958841ZM10.7143 2.85429C9.44775 3.13916 8.39238 4.00645 7.94618 5.12915C7.7516 5.61864 7.68336 5.97646 7.68336 6.50691C7.68336 7.03736 7.7516 7.39517 7.94618 7.88467C8.40227 9.03215 9.5456 9.94812 10.8044 10.1745C11.1683 10.2399 11.9133 10.2325 12.2654 10.1599C13.2586 9.95503 14.1166 9.38835 14.6849 8.56184C15.117 7.93344 15.3193 7.27817 15.3193 6.50691C15.3193 5.73451 15.1171 5.0805 14.6832 4.44949C14.1952 3.73976 13.5219 3.24121 12.6785 2.96513C12.2829 2.83563 12.1827 2.82086 11.6128 2.80792C11.1873 2.79826 10.8967 2.81325 10.7143 2.85429ZM12.107 3.77494C13.0777 3.97148 13.9441 4.74782 14.2537 5.69836C14.3344 5.94608 14.353 6.10412 14.3512 6.52876C14.3493 6.9815 14.3329 7.09706 14.2308 7.3738C14.0643 7.82523 13.8603 8.14083 13.5211 8.47176C13.1788 8.80571 12.7727 9.04932 12.3317 9.18525C12.077 9.26374 11.9146 9.28179 11.4781 9.28009C11.0127 9.27825 10.8939 9.26226 10.6094 9.163C10.1384 8.99863 9.81947 8.80178 9.45714 8.45179C8.58885 7.61317 8.38264 6.33606 8.94116 5.25628C9.53145 4.11501 10.8166 3.51371 12.107 3.77494Z" fill="#555555"/>
</svg>
