<svg width="25" height="25" viewBox="0 0 25 25" fill="none" xmlns="http://www.w3.org/2000/svg">
<path fill-rule="evenodd" clip-rule="evenodd" d="M9.41857 0.0553089C7.00883 0.301754 4.77501 1.36828 3.0447 3.09847C1.84376 4.29938 1.03239 5.60928 0.51517 7.18227C-0.171723 9.27126 -0.171723 11.4407 0.51517 13.5297C1.03473 15.1099 1.84888 16.4215 3.05475 17.6211C5.4353 19.9891 8.68199 21.0633 12.0301 20.5906C13.7531 20.3473 15.4805 19.6373 16.8358 18.6152C16.9822 18.5049 17.1174 18.4204 17.1363 18.4275C17.1552 18.4347 18.6338 19.8804 20.4221 21.6401C22.4572 23.6428 23.7418 24.8713 23.8558 24.924C24.3355 25.1457 24.872 24.8622 24.9716 24.3344C25.0491 23.924 25.321 24.2177 19.9738 18.9356L18.3015 17.2836L18.5872 16.9523C19.805 15.5398 20.6125 13.7531 20.9172 11.797C21.0361 11.0345 21.0367 9.63568 20.9187 8.86606C20.5747 6.62226 19.5922 4.70161 17.9544 3.07078C15.7122 0.838167 12.5809 -0.268073 9.41857 0.0553089ZM11.7553 1.68824C13.7298 1.97875 15.4612 2.83816 16.8315 4.20809C18.5126 5.88874 19.3844 7.98809 19.3844 10.356C19.3844 11.2288 19.3091 11.8306 19.1046 12.5902C18.0686 16.4396 14.5589 19.1 10.5169 19.1C8.11073 19.1 5.8754 18.1841 4.20737 16.5148C3.07433 15.3809 2.3148 14.0719 1.90824 12.5523C1.54712 11.2023 1.54712 9.5096 1.90824 8.15965C2.72644 5.10134 5.1537 2.69122 8.21211 1.90025C9.32397 1.61272 10.6873 1.53114 11.7553 1.68824Z" fill="#0090F8"/>
</svg>
