<svg width="46" height="46" viewBox="0 0 46 46" fill="none" xmlns="http://www.w3.org/2000/svg">
<path fill-rule="evenodd" clip-rule="evenodd" d="M43.3733 0.085469C44.3902 0.234317 45.2726 0.915277 45.7043 1.88438C46.0261 2.60684 46.1007 5.07017 45.8513 6.74294C45.2091 11.0517 43.2679 15.7334 40.6679 19.2448C40.2464 19.814 38.7228 21.4326 36.7035 23.4566L33.4237 26.7438L33.7358 27.6455C34.5226 29.9185 34.8652 32.5084 34.663 34.6514C34.3013 38.4824 32.7481 41.665 29.8345 44.5455C28.7155 45.6518 28.1655 46 27.5372 46C27.1044 46 26.4262 45.7069 26.1538 45.402C26.0455 45.2807 25.0457 43.5754 23.9322 41.6124C22.2287 38.6095 21.8754 38.0497 21.7051 38.0833C21.5938 38.1053 21.1546 38.1279 20.7291 38.1336C19.9528 38.1438 19.6169 38.0459 18.951 37.615L18.6685 37.4323L18.1773 37.8994C15.9588 40.0085 12.482 41.8674 9.82331 42.3658C8.52875 42.6085 6.4753 42.5278 5.61799 42.2007C4.78256 41.882 3.9365 41.0431 3.59992 40.1999C3.37443 39.6349 3.35452 39.4406 3.3571 37.8379C3.35968 36.2869 3.3898 35.9825 3.62612 35.1157C4.28268 32.7082 5.90724 29.8799 7.83526 27.7878L8.38774 27.1882L8.20898 26.9146C7.70085 26.1373 7.50517 25.1513 7.71137 24.4077L7.81556 24.0318L4.44711 22.164C2.59439 21.1368 0.922699 20.1806 0.732075 20.0393C0.326374 19.7383 0 19.0864 0 18.5771C0 17.9383 0.348038 17.4058 1.55884 16.1926C3.90907 13.8375 6.33202 12.3978 9.13942 11.688C12.1667 10.9227 14.9022 11.0376 18.3898 12.0767L19.2998 12.3478L22.063 9.57474C25.2308 6.39563 26.3052 5.46546 28.1367 4.3172C32.0597 1.85736 35.7074 0.516295 39.6278 0.0923517C40.7392 -0.0279386 42.5762 -0.0312259 43.3733 0.085469ZM39.6576 1.73481C37.6811 1.95947 35.533 2.52332 33.52 3.34594C32.6159 3.71534 30.777 4.6262 30.0834 5.04819L29.6898 5.28774L30.5062 6.51366C31.8305 8.50199 32.7301 9.58984 34.5428 11.3951C36.3701 13.2149 37.4797 14.1236 39.4451 15.4099L40.6767 16.2161L41.1703 15.3678C42.3152 13.4002 43.4874 10.3705 43.9232 8.25329C44.231 6.75783 44.3862 5.0409 44.3268 3.79094C44.2545 2.27309 44.04 1.90759 43.1132 1.7231C42.5533 1.61154 40.6857 1.61791 39.6576 1.73481ZM27.5141 6.78331C27.1013 7.13308 26.1369 7.99967 25.371 8.70919C23.177 10.7415 9.58606 24.2473 9.42453 24.5557C9.25031 24.8882 9.23658 25.3892 9.39307 25.6975C9.55502 26.0165 19.7943 36.2283 20.1308 36.4065C20.4859 36.5943 20.9712 36.5947 21.3274 36.4074C21.4806 36.3268 25.3476 32.5246 29.9206 27.9583C35.7125 22.1747 38.4722 19.3467 39.0161 18.6373L39.7969 17.619L38.4378 16.7192C36.5078 15.4413 35.0282 14.2328 33.3608 12.5722C31.664 10.8826 30.4407 9.39436 29.203 7.5144C28.7123 6.76893 28.3004 6.15648 28.2877 6.1533C28.2749 6.15001 27.9268 6.43363 27.5141 6.78331ZM10.3477 13.1227C7.56376 13.666 5.2944 14.8979 2.95872 17.1338C1.70459 18.3345 1.55544 18.5343 1.76474 18.7331C1.92266 18.8831 8.73609 22.6861 8.84698 22.6861C8.88659 22.6861 10.9571 20.6561 13.448 18.175L17.9769 13.664L17.4645 13.5125C15.1162 12.818 12.6124 12.6809 10.3477 13.1227ZM29.3939 14.0171C30.513 14.42 31.4181 15.257 31.9442 16.3757C32.1975 16.9144 32.2306 17.1037 32.2306 18.0121C32.2306 18.9401 32.2013 19.0989 31.9278 19.6557C31.5397 20.4456 30.6487 21.3326 29.8581 21.716C29.3007 21.9864 29.1367 22.0164 28.2077 22.0173C27.2605 22.0183 27.1193 21.9916 26.4808 21.6904C25.5809 21.2658 24.8373 20.5253 24.4109 19.6291C24.1089 18.994 24.0816 18.8516 24.0816 17.9094C24.0816 17.0187 24.1171 16.8071 24.3483 16.3172C24.7418 15.4838 25.5668 14.6395 26.3743 14.2436C26.9621 13.9554 27.1766 13.9072 27.9908 13.8805C28.6642 13.8586 29.0609 13.8972 29.3939 14.0171ZM27.3944 15.6203C26.7826 15.8004 25.9661 16.6395 25.7896 17.2697C25.3652 18.7851 26.3666 20.2558 27.9182 20.3959C29.4455 20.5339 30.7585 19.2137 30.6014 17.6983C30.4375 16.1163 28.9607 15.1595 27.3944 15.6203ZM20.8585 22.0725C22.0324 22.3663 23.2004 23.3496 23.75 24.507C24.0457 25.1295 24.0805 25.3003 24.0805 26.1273C24.0805 26.9529 24.0455 27.1257 23.7525 27.7425C23.2985 28.6983 22.6227 29.3858 21.6815 29.8489C20.9738 30.1973 20.843 30.227 20.0218 30.2251C18.9904 30.223 18.3559 30.0172 17.5396 29.4206C16.437 28.6145 15.8468 27.4547 15.8375 26.076C15.8323 25.302 15.8688 25.1244 16.159 24.5122C16.853 23.0483 18.2452 22.0698 19.723 22.0073C20.1345 21.9898 20.6455 22.0192 20.8585 22.0725ZM18.8747 23.9196C18.0192 24.3589 17.5299 25.1726 17.5337 26.1497C17.539 27.5525 18.5376 28.5368 19.9555 28.5368C21.385 28.5368 22.4137 27.4899 22.4047 26.0441C22.3937 24.2571 20.4709 23.0998 18.8747 23.9196ZM27.6024 32.5341L23.1813 36.9378L25.2114 40.5209C26.3279 42.4917 27.3041 44.1679 27.3805 44.2458C27.5754 44.4443 27.8997 44.1967 29.1249 42.9134C31.9203 39.9856 33.2413 36.6053 33.0754 32.8044C33.0434 32.07 32.9206 31.0068 32.8028 30.4418C32.5692 29.3225 32.2031 28.1305 32.0928 28.1305C32.0546 28.1305 30.0339 30.1121 27.6024 32.5341ZM9.008 28.9191C7.12082 31.1094 5.86174 33.2995 5.23891 35.4753C5.0455 36.1511 5.00331 36.5524 5.00104 37.7352C4.99794 39.3944 5.04013 39.603 5.47936 40.1013C6.06485 40.7653 6.25434 40.8178 8.04136 40.8101C9.47796 40.804 9.7345 40.7747 10.5686 40.5219C12.722 39.8691 14.9425 38.5556 17.1704 36.6165L17.583 36.2574L13.6121 32.2967C11.4282 30.1183 9.61185 28.3359 9.57586 28.3359C9.53996 28.3359 9.28445 28.5984 9.008 28.9191Z" fill="#00BDD7"/>
</svg>
