<svg width="50" height="38" viewBox="0 0 50 38" fill="none" xmlns="http://www.w3.org/2000/svg">
<path fill-rule="evenodd" clip-rule="evenodd" d="M22.6594 0.0875114C15.2027 0.562106 7.91957 3.52444 2.24696 8.3902C0.495211 9.89273 0 10.4135 0 10.7533C0 11.154 0.377295 11.5355 0.773737 11.5355C1.08714 11.5355 1.30334 11.377 2.49169 10.2761C7.72223 5.43039 14.6951 2.39961 22.1766 1.71985C23.7775 1.57441 27.8125 1.65907 29.3571 1.87054C36.4692 2.8443 42.6908 5.79401 47.9501 10.6859C48.7345 11.4154 48.9113 11.5355 49.2017 11.5355C49.8246 11.5355 50.194 10.9319 49.8938 10.4046C49.7292 10.1154 48.0132 8.54555 46.8766 7.64432C41.1577 3.11004 34.4171 0.537541 27.0613 0.0819767C25.2734 -0.0287102 24.4701 -0.027739 22.6594 0.0875114ZM21.6199 6.54202C19.2468 6.82786 16.7136 7.45858 14.5607 8.29971C11.139 9.6364 7.27841 12.1204 5.09299 14.3914C4.52685 14.9797 4.47634 15.0659 4.53154 15.3499C4.60931 15.75 4.91714 16.0018 5.32843 16.0018C5.60198 16.0018 5.80293 15.8633 6.60832 15.12C10.6071 11.4291 15.5432 9.06947 21.0531 8.21475C22.2046 8.0361 22.8299 8.0025 25.0097 8.0025C27.1894 8.0025 27.8148 8.0361 28.9663 8.21475C34.511 9.0749 39.3688 11.4043 43.4576 15.1635C44.374 16.0061 44.6124 16.1203 45.0814 15.9415C45.3179 15.8513 45.5389 15.3607 45.4686 15.0821C45.3934 14.7845 43.8789 13.3326 42.6655 12.3949C40.4484 10.6816 37.479 9.03112 34.9514 8.10707C32.7732 7.31071 30.1749 6.71824 27.8569 6.48939C26.469 6.35239 22.9482 6.3821 21.6199 6.54202ZM22.2743 12.8469C17.6791 13.4078 13.1617 15.5098 9.82158 18.6414C9.12561 19.2938 9.04647 19.4046 9.04647 19.726C9.04647 20.2586 9.37287 20.5199 9.98727 20.4793C10.0803 20.4731 10.4979 20.1559 10.9154 19.7745C13.981 16.9731 17.5734 15.2402 21.7858 14.5308C23.3966 14.2595 26.2875 14.2382 27.9405 14.4853C32.2519 15.1299 35.8796 16.8644 39.2017 19.8698C39.5654 20.1989 39.9391 20.4731 40.0321 20.4793C40.6472 20.5199 40.9729 20.2587 40.9729 19.7246C40.9729 19.3993 40.8948 19.2923 40.1474 18.5952C36.7229 15.4007 32.1186 13.3194 27.3337 12.803C26.0849 12.6682 23.5585 12.6901 22.2743 12.8469ZM23.3 19.1186C21.0247 19.3544 18.8308 20.0928 16.7545 21.3217C15.5093 22.0588 13.7467 23.5284 13.5974 23.9542C13.3941 24.5338 13.9761 25.1288 14.5425 24.9205C14.6686 24.8741 15.13 24.529 15.5678 24.1536C18.5688 21.5798 22.2877 20.3548 26.1501 20.6677C29.3776 20.9291 32.1273 22.111 34.6282 24.3117C34.987 24.6275 35.3766 24.9111 35.4939 24.9419C36.0716 25.0936 36.6195 24.5172 36.4249 23.9624C36.3301 23.6923 35.4293 22.8518 34.4372 22.1081C31.3752 19.8126 27.2601 18.708 23.3 19.1186ZM24.2281 25.388C22.085 25.6024 20.3096 26.3543 18.6904 27.7332C18.0979 28.2377 17.9235 28.572 18.0629 28.9361C18.1781 29.2377 18.5269 29.4978 18.8157 29.4978C18.9314 29.4978 19.3941 29.2028 19.8441 28.8424C20.9055 27.9923 21.856 27.5038 23.0206 27.2103C25.5106 26.5825 28.2428 27.2001 30.1386 28.8192C30.9124 29.4801 31.1852 29.5902 31.5485 29.3878C31.9153 29.1835 32.0669 28.8164 31.9373 28.4469C31.8408 28.1716 31.0706 27.4746 30.2182 26.8908C29.1905 26.1872 27.4776 25.5846 26.0578 25.4273C25.131 25.3245 24.9103 25.3199 24.2281 25.388ZM23.7965 31.9658C21.7209 32.8352 21.1814 35.4996 22.7627 37.0711C23.5148 37.8186 24.5734 38.1453 25.5765 37.9395C26.3278 37.7855 26.7491 37.5577 27.2884 37.0141C28.4855 35.8074 28.4383 33.7424 27.1873 32.5964C26.5808 32.0408 25.9883 31.8023 25.1074 31.7594C24.4941 31.7295 24.2805 31.7631 23.7965 31.9658ZM25.8717 33.5468C26.5661 34.0579 26.7711 34.9019 26.3708 35.6015C26.0825 36.1054 25.7376 36.3233 25.1521 36.3716C24.5429 36.4218 24.028 36.2113 23.7247 35.788C23.5028 35.4783 23.3846 34.8055 23.4833 34.4144C23.5681 34.0787 24.0144 33.576 24.3698 33.4157C24.7673 33.2364 25.542 33.3041 25.8717 33.5468Z" fill="#00BDD7"/>
</svg>
