<svg width="47" height="48" viewBox="0 0 47 48" fill="none" xmlns="http://www.w3.org/2000/svg">
<path fill-rule="evenodd" clip-rule="evenodd" d="M16.4598 0.145141C14.0999 0.571795 12.0315 1.66356 10.2875 3.40305C8.17153 5.51357 7.05016 8.10269 6.85087 11.3373C6.82805 11.7088 6.81704 11.7185 6.16043 11.9475C1.44837 13.5914 -1.08751 18.774 0.447925 23.6223C1.2584 26.1815 3.36226 28.4025 5.90637 29.3847C7.34886 29.9416 7.73713 29.9888 11.3723 30.0478L14.7263 30.1022L14.689 34.0377C14.6603 37.0497 14.6195 38.0624 14.515 38.3532C14.3169 38.9051 13.6565 39.6054 13.0811 39.8735C12.6005 40.0977 12.4898 40.1066 10.189 40.1075L7.79665 40.1085L7.579 39.511C7.17823 38.4105 6.077 37.5287 4.85494 37.3296C3.03301 37.0326 1.33538 38.1699 0.86953 39.9994C0.459631 41.6088 1.29818 43.3328 2.83639 44.0429C3.36385 44.2865 3.57881 44.3285 4.29802 44.3285C5.01723 44.3285 5.2322 44.2865 5.75965 44.0429C6.49354 43.7041 7.17803 43.0161 7.52623 42.2673C7.65926 41.9813 7.76858 41.6946 7.76907 41.6304C7.76977 41.5446 8.46279 41.505 10.3741 41.4814L12.9781 41.4492L13.6229 41.1404C14.5674 40.6879 15.1379 40.1334 15.58 39.2384L15.9542 38.4806L15.983 34.2791L16.0119 30.0778H19.4303H22.8486V35.5431C22.8486 40.6618 22.8376 41.012 22.675 41.0618C21.3372 41.4724 20.4452 42.3851 20.1129 43.6835C19.7987 44.9114 20.1732 46.1622 21.1248 47.0633C21.9241 47.8201 22.4008 48.0047 23.5431 47.9999C24.6867 47.9951 25.1789 47.8041 25.9652 47.0595C27.7884 45.3333 27.3019 42.3484 25.0293 41.317C24.7848 41.2059 24.5065 41.0911 24.4111 41.0618C24.2485 41.012 24.2375 40.6618 24.2375 35.5431V30.0778H27.6599H31.0823V34.1459C31.0823 38.0624 31.0903 38.2355 31.2953 38.7888C31.7102 39.9082 32.4013 40.6491 33.5197 41.1734L34.108 41.4492L36.712 41.4814C38.6239 41.505 39.316 41.5446 39.3161 41.6304C39.3161 41.6946 39.4449 42.0153 39.6021 42.3431C39.9588 43.086 40.5765 43.6899 41.3497 44.0512C41.8549 44.2873 42.0723 44.3294 42.7881 44.3294C43.4939 44.3294 43.7231 44.2863 44.1943 44.0652C45.7911 43.3158 46.631 41.627 46.2166 39.9994C45.6481 37.7667 43.2725 36.6515 41.2043 37.6464C40.5163 37.9774 39.765 38.8027 39.5071 39.511L39.2895 40.1085L36.8971 40.1075C34.5998 40.1066 34.485 40.0974 34.0088 39.8748C33.4552 39.6162 32.8617 39.0144 32.6011 38.4472C32.4487 38.1158 32.4248 37.6112 32.3934 34.0752L32.358 30.0778L35.0185 30.0752C37.8406 30.0725 39.1998 29.9814 40.1448 29.7317C43.3386 28.888 45.8373 26.4112 46.7801 23.1545C46.9758 22.4788 47.0035 22.1608 46.9997 20.6429C46.9954 19.008 46.9785 18.8549 46.7151 18.0607C45.4137 14.1376 42.2806 11.6706 38.3059 11.4393L37.2462 11.3776L37.0808 10.8708C36.0455 7.6965 32.9974 5.56432 29.7962 5.77487C29.3305 5.80546 28.8801 5.8576 28.7953 5.89067C28.6826 5.93457 28.5102 5.74239 28.1556 5.17789C27.5591 4.22805 25.9333 2.57874 24.9796 1.95594C23.5423 1.01732 22.0529 0.422625 20.4296 0.139281C19.3527 -0.0487204 17.5171 -0.0460389 16.4598 0.145141ZM20.3675 1.53057C23.1078 2.05098 25.4338 3.59373 26.9899 5.92265C27.3214 6.41892 27.6197 6.91013 27.6528 7.01431C27.7726 7.3924 28.1148 7.47066 28.8832 7.29577C32.0395 6.57703 35.1897 8.58993 35.9019 11.7807C36.1177 12.7471 36.1989 12.7971 37.5567 12.7971C39.3678 12.7971 40.7752 13.1951 42.1273 14.0899C43.8036 15.199 44.9673 16.8244 45.4807 18.7734C45.7761 19.8953 45.7756 21.5504 45.4794 22.6788C44.7604 25.4179 42.7537 27.482 39.9572 28.3589L39.068 28.6377H23.5431H8.01807L7.12893 28.3589C4.33245 27.482 2.3257 25.4179 1.60669 22.6788C1.3328 21.6354 1.31375 19.9017 1.56523 18.9049C2.29267 16.0218 4.53382 13.736 7.31999 13.0353C7.76471 12.9235 8.02491 12.8001 8.113 12.6591C8.19544 12.5274 8.26399 11.9696 8.29742 11.1584C8.4108 8.41355 9.42355 6.16219 11.4048 4.25119C12.8424 2.86456 14.5028 1.97322 16.4006 1.56941C17.4746 1.34079 19.2754 1.32321 20.3675 1.53057ZM4.86625 38.7342C5.4931 38.8922 6.22034 39.5986 6.38224 40.2068C6.65534 41.2329 6.21558 42.249 5.29658 42.7155C4.59166 43.0732 4.01659 43.0762 3.31405 42.7257C1.96015 42.0503 1.72762 40.2329 2.86675 39.2292C3.49638 38.6743 4.06778 38.5329 4.86625 38.7342ZM43.3563 38.7342C43.9832 38.8922 44.7104 39.5986 44.8723 40.2068C45.1396 41.2112 44.6967 42.238 43.792 42.7111C42.0905 43.601 40.2071 42.0736 40.7039 40.2068C40.8546 39.6407 41.599 38.8885 42.1541 38.7415C42.6818 38.6018 42.8276 38.6009 43.3563 38.7342ZM24.5294 42.5885C25.2411 42.952 25.7255 43.7651 25.7255 44.5962C25.7255 45.1282 25.2481 45.969 24.7497 46.315C24.3611 46.5848 24.2447 46.6136 23.5431 46.6136C22.8414 46.6136 22.725 46.5848 22.3364 46.315C21.838 45.969 21.3606 45.1282 21.3606 44.5962C21.3606 43.7773 21.839 42.9618 22.5354 42.5934C23.0363 42.3285 24.0155 42.326 24.5294 42.5885Z" fill="#00BDD7"/>
</svg>
