<svg width="35" height="35" viewBox="0 0 35 35" fill="none" xmlns="http://www.w3.org/2000/svg">
<path d="M17.5 35C27.165 35 35 27.165 35 17.5C35 7.83502 27.165 0 17.5 0C7.83502 0 0 7.83502 0 17.5C0 27.165 7.83502 35 17.5 35Z" fill="white"/>
<path d="M24.534 21.0327C27.0397 19.6436 28.9534 18.5825 29.1275 18.4859C29.6468 18.198 30.1908 17.4634 29.1275 16.8761C28.7857 16.687 26.9235 15.6585 24.5311 14.3364L21.2405 17.695L24.534 21.0327Z" fill="#FFE300"/>
<path d="M21.2404 17.6953L10.7159 28.4368C10.9536 28.4674 11.2395 28.4036 11.5683 28.2213C12.249 27.844 19.5595 23.7908 24.534 21.0328L21.2404 17.6953Z" fill="#FF4E54"/>
<path d="M21.2404 17.6951L24.5309 14.3366C24.5309 14.3366 12.3004 7.57783 11.5683 7.17323C11.2868 7.01766 10.98 6.96337 10.7084 7.02463L21.2404 17.6951Z" fill="#00F085"/>
<path d="M21.2404 17.6952L10.7082 7.0249C10.2732 7.12319 9.91669 7.50455 9.91669 8.27109V27.1565C9.91669 27.8784 10.1971 28.3861 10.7158 28.4367L21.2404 17.6952Z" fill="#00E0FF"/>
</svg>
