<svg width="13" height="27" viewBox="0 0 13 27" fill="none" xmlns="http://www.w3.org/2000/svg">
<path fill-rule="evenodd" clip-rule="evenodd" d="M8.42969 0.0653605C5.91932 0.486829 4.34652 2.16178 3.87639 4.91444C3.81276 5.28694 3.7898 5.90635 3.77127 7.75238L3.7475 10.1138H1.87378H0V12.5148V14.9158H1.87891H3.75781V20.9579V27H6.09375H8.42969V20.9579V14.9158H10.2324C11.2239 14.9158 12.0352 14.9021 12.0352 14.8854C12.0352 14.8686 12.1608 13.8138 12.3145 12.5412C12.4681 11.2686 12.5938 10.2019 12.5938 10.1706C12.5938 10.131 11.964 10.1138 10.5091 10.1138H8.42435L8.44091 7.98984C8.45548 6.10946 8.46767 5.83864 8.5472 5.62841C8.7458 5.1032 9.04602 4.80832 9.58471 4.60944C9.84897 4.51186 10.0266 4.49946 11.4385 4.47994L13 4.4583V2.3241C13 0.663818 12.9859 0.184883 12.9365 0.167522C12.7681 0.108209 11.4182 0.0283692 10.2324 0.00752532C9.20273 -0.0105746 8.80593 0.00219561 8.42969 0.0653605Z" fill="white"/>
</svg>
