<svg width="24" height="19" viewBox="0 0 24 19" fill="none" xmlns="http://www.w3.org/2000/svg">
<path fill-rule="evenodd" clip-rule="evenodd" d="M15.8077 0.0705537C13.8867 0.407333 12.3695 1.76999 11.8615 3.61487C11.774 3.93264 11.756 4.12123 11.7534 4.74996C11.7517 5.16465 11.7668 5.59305 11.7868 5.7019L11.8233 5.8999L11.5042 5.87152C9.43018 5.68723 7.75133 5.22529 6.08049 4.37913C4.53741 3.59769 2.92957 2.37075 1.94371 1.22232C1.7964 1.05073 1.65479 0.917117 1.62898 0.925479C1.60322 0.933796 1.50107 1.1185 1.40194 1.33597C0.725482 2.81967 0.851741 4.535 1.73546 5.86722C1.99415 6.25715 2.4155 6.7179 2.75787 6.98513L3.11418 7.26324H2.921C2.50785 7.26324 1.64386 7.03699 1.17999 6.80737C1.07718 6.75651 0.975834 6.71488 0.954783 6.71488C0.888286 6.71488 0.976304 7.55249 1.0849 7.95302C1.51256 9.53062 2.71935 10.7781 4.32209 11.2995C4.58808 11.3861 4.77561 11.468 4.73883 11.4817C4.52634 11.5608 3.82822 11.6143 3.28598 11.593L2.6772 11.569L2.70757 11.6864C2.75928 11.8864 3.10693 12.5272 3.32328 12.8215C4.15566 13.9534 5.51451 14.7308 6.84077 14.8339C7.04153 14.8495 7.20575 14.8779 7.20575 14.897C7.20575 14.9743 6.15009 15.6092 5.50443 15.9202C4.03463 16.6283 2.58221 16.9346 0.87185 16.8972L0 16.8782L0.247432 17.0289C0.607794 17.2484 1.69953 17.7834 2.19025 17.9808C4.8316 19.0435 7.91536 19.2854 10.8262 18.6583C15.11 17.7356 18.6341 14.8494 20.414 10.806C21.175 9.07709 21.5567 7.37926 21.5958 5.54964L21.6133 4.72711L21.9543 4.46121C22.3903 4.12114 22.8803 3.66797 23.2491 3.26347C23.5645 2.91764 24.0262 2.32053 23.9988 2.29394C23.9895 2.28489 23.847 2.3309 23.6822 2.39625C23.0584 2.64356 21.6109 2.99989 21.3946 2.95945C21.3412 2.94945 21.3799 2.9048 21.5198 2.81492C21.8752 2.58666 22.5102 1.95538 22.78 1.56198C23.0142 1.22036 23.3569 0.550635 23.3584 0.431506C23.3587 0.406282 23.0699 0.523081 22.7166 0.691013C22.0781 0.994572 21.2451 1.28707 20.5922 1.437L20.2508 1.51537L19.9652 1.25888C18.8628 0.268463 17.2721 -0.186166 15.8077 0.0705537Z" fill="white"/>
</svg>
