<svg width="181" height="215" viewBox="0 0 181 215" fill="none" xmlns="http://www.w3.org/2000/svg">
<g style="mix-blend-mode:multiply" opacity="0.25" filter="url(#filter0_f_83_93)">
<ellipse cx="90.8093" cy="184.339" rx="69.8835" ry="10.455" fill="black"/>
</g>
<path d="M168.471 162.011C160.612 178.963 137.994 183.227 133.847 167.145C131.457 157.882 117.325 151.815 111.645 169.524C107.151 183.533 75.9628 184.325 74.6413 159.186C74.0315 147.586 63.5403 145.94 57.1969 159.186C50.8535 172.431 40.5454 175.075 31.8232 175.075C23.101 175.075 12 166.352 12 150.494C12 134.635 21.2742 116.868 23.894 99.4821C27.6052 74.272 28.293 44.654 44.6663 24.2252C73.4833 -11.6339 123.476 -6.2007 149.019 30.7451C163.646 51.8259 158.979 84.6565 161.599 108.997C162.909 120.298 173.985 150.117 168.471 162.011Z" fill="white"/>
<path d="M88.2257 111.562C84.8448 110.48 80.5723 108.059 79.7921 105.895C76.6434 99.58 78.4995 93.8463 86.5617 94.7118C91.4481 95.3609 96.8079 95.3341 99.1486 95.1178C104.09 94.4686 107.986 92.3755 109.547 98.0011C110.847 102.978 106.951 108.1 99.6687 111.346C96.2878 112.644 92.3868 112.86 88.2257 111.562Z" fill="#252C36"/>
<path d="M85.7422 109.534C86.7669 109.957 87.5354 110.593 88.5601 110.805C92.9151 112.077 96.5016 111.865 99.8319 110.381C100.857 109.957 101.625 109.534 102.394 109.11C102.137 108.898 102.137 108.474 101.625 108.05C101.113 107.203 99.3195 106.355 97.2701 106.143C94.7084 105.719 92.659 105.719 90.8657 106.143C87.7916 106.991 85.9984 108.262 85.7422 109.534Z" fill="#DD0B2B"/>
<path d="M89.7996 96.0784C87.2183 95.8064 84.637 95.6251 83.669 95.5685C82.6365 95.4999 81.6255 95.8799 81.249 96.0784C82.0557 97.155 85.7663 99.3421 94.1556 99.4781C102.545 99.6141 105.61 96.5884 106.094 95.0585C105.825 94.9452 104.642 94.8885 102.061 95.5685C98.8342 96.4184 93.0262 96.4184 89.7996 96.0784Z" fill="white"/>
<path d="M62.7467 86.7956C67.1259 86.7956 70.6759 83.2455 70.6759 78.8663C70.6759 74.4871 67.1259 70.937 62.7467 70.937C58.3674 70.937 54.8174 74.4871 54.8174 78.8663C54.8174 83.2455 58.3674 86.7956 62.7467 86.7956Z" fill="#252C36"/>
<path d="M128.295 86.7956C132.675 86.7956 136.225 83.2455 136.225 78.8663C136.225 74.4871 132.675 70.937 128.295 70.937C123.916 70.937 120.366 74.4871 120.366 78.8663C120.366 83.2455 123.916 86.7956 128.295 86.7956Z" fill="#252C36"/>
<path d="M59.9725 79.6579C61.5052 79.6579 62.7478 78.4154 62.7478 76.8827C62.7478 75.3499 61.5052 74.1074 59.9725 74.1074C58.4398 74.1074 57.1973 75.3499 57.1973 76.8827C57.1973 78.4154 58.4398 79.6579 59.9725 79.6579Z" fill="white"/>
<path d="M125.52 79.6579C127.053 79.6579 128.296 78.4154 128.296 76.8827C128.296 75.3499 127.053 74.1074 125.52 74.1074C123.988 74.1074 122.745 75.3499 122.745 76.8827C122.745 78.4154 123.988 79.6579 125.52 79.6579Z" fill="white"/>
<defs>
<filter id="filter0_f_83_93" x="0.925781" y="153.884" width="179.767" height="60.9099" filterUnits="userSpaceOnUse" color-interpolation-filters="sRGB">
<feFlood flood-opacity="0" result="BackgroundImageFix"/>
<feBlend mode="normal" in="SourceGraphic" in2="BackgroundImageFix" result="shape"/>
<feGaussianBlur stdDeviation="10" result="effect1_foregroundBlur_83_93"/>
</filter>
</defs>
</svg>
