<svg width="244" height="303" viewBox="0 0 244 303" fill="none" xmlns="http://www.w3.org/2000/svg">
<g style="mix-blend-mode:multiply" opacity="0.25" filter="url(#filter0_f_75_89)">
<g style="mix-blend-mode:multiply" opacity="0.25">
<path d="M122.391 283C178.498 283 223.983 276.199 223.983 267.81C223.983 259.422 178.498 252.621 122.391 252.621C66.2832 252.621 20.799 259.422 20.799 267.81C20.799 276.199 66.2832 283 122.391 283Z" fill="black"/>
</g>
</g>
<path d="M235.466 235.373C224.041 260.001 191.161 266.197 185.132 242.833C181.658 229.375 161.114 220.56 152.856 246.289C146.324 266.641 100.985 267.792 99.0635 231.27C98.177 214.417 82.9257 212.026 73.704 231.27C64.4824 250.512 49.4972 254.352 36.8175 254.352C24.1379 254.352 8 241.681 8 218.641C8 195.601 21.4823 169.789 25.2905 144.53C30.6857 107.904 31.6856 64.8745 55.4879 35.1949C97.3802 -16.902 170.057 -9.00852 207.188 44.6672C228.451 75.2939 221.668 122.991 225.476 158.354C227.381 174.771 243.483 218.095 235.466 235.373Z" fill="white"/>
<path d="M118.811 162.079C113.896 160.507 107.685 156.99 106.551 153.846C101.974 144.671 104.672 136.341 116.392 137.598C123.496 138.541 131.288 138.502 134.69 138.188C141.873 137.245 147.538 134.204 149.807 142.377C151.697 149.607 146.032 157.049 135.446 161.764C130.531 163.65 124.86 163.965 118.811 162.079Z" fill="#252C36"/>
<path d="M115.201 159.134C116.691 159.749 117.808 160.673 119.298 160.981C125.629 162.828 130.843 162.52 135.684 160.365C137.174 159.749 138.291 159.134 139.408 158.518C139.036 158.21 139.036 157.594 138.291 156.979C137.546 155.747 134.939 154.516 131.96 154.208C128.236 153.592 125.256 153.592 122.65 154.208C118.181 155.439 115.574 157.287 115.201 159.134Z" fill="#DD0B2B"/>
<path d="M121.1 139.585C117.347 139.19 113.594 138.926 112.187 138.844C110.686 138.744 109.217 139.296 108.669 139.585C109.842 141.149 115.236 144.326 127.432 144.524C139.628 144.722 144.084 140.326 144.787 138.103C144.397 137.938 142.676 137.856 138.924 138.844C134.233 140.079 125.79 140.079 121.1 139.585Z" fill="white"/>
<path d="M81.7729 126.099C88.1391 126.099 93.2999 120.942 93.2999 114.579C93.2999 108.217 88.1391 103.06 81.7729 103.06C75.4068 103.06 70.246 108.217 70.246 114.579C70.246 120.942 75.4068 126.099 81.7729 126.099Z" fill="#252C36"/>
<path d="M177.064 126.099C183.43 126.099 188.59 120.942 188.59 114.579C188.59 108.217 183.43 103.06 177.064 103.06C170.697 103.06 165.536 108.217 165.536 114.579C165.536 120.942 170.697 126.099 177.064 126.099Z" fill="#252C36"/>
<path d="M77.7385 115.73C79.9666 115.73 81.7729 113.925 81.7729 111.698C81.7729 109.471 79.9666 107.666 77.7385 107.666C75.5103 107.666 73.704 109.471 73.704 111.698C73.704 113.925 75.5103 115.73 77.7385 115.73Z" fill="white"/>
<path d="M173.028 115.73C175.256 115.73 177.064 113.925 177.064 111.698C177.064 109.471 175.256 107.666 173.028 107.666C170.8 107.666 168.994 109.471 168.994 111.698C168.994 113.925 170.8 115.73 173.028 115.73Z" fill="white"/>
<defs>
<filter id="filter0_f_75_89" x="0.799011" y="232.621" width="243.184" height="70.3784" filterUnits="userSpaceOnUse" color-interpolation-filters="sRGB">
<feFlood flood-opacity="0" result="BackgroundImageFix"/>
<feBlend mode="normal" in="SourceGraphic" in2="BackgroundImageFix" result="shape"/>
<feGaussianBlur stdDeviation="10" result="effect1_foregroundBlur_75_89"/>
</filter>
</defs>
</svg>
