<svg width="445" height="428" viewBox="0 0 445 428" fill="none" xmlns="http://www.w3.org/2000/svg">
<path opacity="0.17" d="M236.876 75.3806C235.715 33.8323 202.041 0 160.82 0C132.372 0 107.407 16.0258 94.6343 40.3613C88.8285 36.8 81.8616 35.0194 74.8946 35.0194C53.9938 35.0194 36.5764 51.6387 35.4153 72.4129C14.5145 81.3161 0 102.09 0 125.832C0 157.884 25.5455 184 56.8967 184H227.587C257.196 184 281 159.665 281 129.394C281 102.684 261.841 80.129 236.876 75.3806Z" fill="white"/>
<g style="mix-blend-mode:multiply" opacity="0.25" filter="url(#filter0_f_213_53)">
<ellipse cx="302.747" cy="389.859" rx="121.259" ry="18.1412" fill="black"/>
</g>
<path d="M437.503 351.116C423.866 380.53 384.621 387.93 377.424 360.025C373.278 343.951 348.756 333.425 338.9 364.152C331.103 388.459 276.986 389.835 274.693 346.214C273.635 326.087 255.431 323.231 244.424 346.214C233.417 369.197 215.531 373.783 200.397 373.783C185.262 373.783 166 358.649 166 331.132C166 303.614 182.092 272.786 186.638 242.618C193.078 198.874 194.271 147.482 222.681 112.035C272.684 49.8133 359.43 59.2408 403.75 123.348C429.13 159.926 421.033 216.893 425.579 259.128C427.852 278.737 447.072 330.478 437.503 351.116Z" fill="white"/>
<path d="M298.264 263.578C292.397 261.701 284.984 257.501 283.63 253.746C278.167 242.788 281.387 232.839 295.377 234.341C303.855 235.467 313.156 235.421 317.217 235.045C325.791 233.919 332.552 230.287 335.26 240.048C337.516 248.683 330.755 257.571 318.119 263.203C312.253 265.456 305.484 265.831 298.264 263.578Z" fill="#252C36"/>
<path d="M293.956 260.06C295.734 260.795 297.067 261.898 298.845 262.266C306.402 264.472 312.625 264.104 318.404 261.53C320.182 260.795 321.515 260.06 322.849 259.324C322.404 258.956 322.404 258.221 321.515 257.486C320.626 256.015 317.515 254.544 313.958 254.176C309.513 253.441 305.957 253.441 302.846 254.176C297.512 255.647 294.4 257.853 293.956 260.06Z" fill="#DD0B2B"/>
<path d="M300.995 236.712C296.516 236.24 292.037 235.926 290.357 235.827C288.566 235.708 286.811 236.368 286.158 236.712C287.558 238.58 293.996 242.375 308.553 242.611C323.11 242.847 328.429 237.597 329.268 234.942C328.802 234.746 326.749 234.647 322.27 235.827C316.671 237.302 306.594 237.302 300.995 236.712Z" fill="white"/>
<path d="M254.055 220.604C261.653 220.604 267.813 214.444 267.813 206.846C267.813 199.247 261.653 193.087 254.055 193.087C246.456 193.087 240.296 199.247 240.296 206.846C240.296 214.444 246.456 220.604 254.055 220.604Z" fill="#252C36"/>
<path d="M367.793 220.604C375.391 220.604 381.551 214.444 381.551 206.846C381.551 199.247 375.391 193.087 367.793 193.087C360.194 193.087 354.034 199.247 354.034 206.846C354.034 214.444 360.194 220.604 367.793 220.604Z" fill="#252C36"/>
<path d="M249.239 208.22C251.899 208.22 254.055 206.064 254.055 203.404C254.055 200.745 251.899 198.589 249.239 198.589C246.58 198.589 244.424 200.745 244.424 203.404C244.424 206.064 246.58 208.22 249.239 208.22Z" fill="white"/>
<path d="M362.977 208.22C365.637 208.22 367.793 206.064 367.793 203.404C367.793 200.745 365.637 198.589 362.977 198.589C360.318 198.589 358.162 200.745 358.162 203.404C358.162 206.064 360.318 208.22 362.977 208.22Z" fill="white"/>
<defs>
<filter id="filter0_f_213_53" x="161.488" y="351.718" width="282.519" height="76.2823" filterUnits="userSpaceOnUse" color-interpolation-filters="sRGB">
<feFlood flood-opacity="0" result="BackgroundImageFix"/>
<feBlend mode="normal" in="SourceGraphic" in2="BackgroundImageFix" result="shape"/>
<feGaussianBlur stdDeviation="10" result="effect1_foregroundBlur_213_53"/>
</filter>
</defs>
</svg>
