<svg width="35" height="35" viewBox="0 0 35 35" fill="none" xmlns="http://www.w3.org/2000/svg">
<path d="M27.9265 0H7.06912C3.16273 0 0 3.16313 0 7.07V27.9344C0 31.8369 3.16273 35 7.06912 35H27.9309C31.8329 35 35 31.8369 35 27.93V7.07C34.9956 3.16313 31.8329 0 27.9265 0Z" fill="url(#paint0_linear_69_2533)"/>
<path d="M17.3497 8.04144L18.0583 6.81644C18.4958 6.05081 19.4713 5.79268 20.2368 6.23018C21.0023 6.66769 21.2604 7.64331 20.823 8.40894L13.9945 20.2302H18.9332C20.5343 20.2302 21.431 22.1114 20.7355 23.4152H6.25606C5.37242 23.4152 4.66376 22.7064 4.66376 21.8227C4.66376 20.9389 5.37242 20.2302 6.25606 20.2302H10.3155L15.5124 11.2221L13.8895 8.40456C13.452 7.63894 13.7101 6.67206 14.4756 6.22581C15.2412 5.78831 16.2079 6.04643 16.6541 6.81206L17.3497 8.04144ZM11.2079 25.0558L9.67688 27.7115C9.23943 28.4771 8.26393 28.7352 7.4984 28.2977C6.73287 27.8602 6.47478 26.8846 6.91222 26.119L8.04958 24.1502C9.33567 23.7521 10.3812 24.0583 11.2079 25.0558ZM24.3925 20.2389H28.5351C29.4188 20.2389 30.1274 20.9477 30.1274 21.8314C30.1274 22.7152 29.4188 23.424 28.5351 23.424H26.2342L27.7871 26.119C28.2245 26.8846 27.9665 27.8515 27.2009 28.2977C26.4354 28.7352 25.4686 28.4771 25.0224 27.7115C22.4065 23.1746 20.4424 19.7796 19.1388 17.5177C17.8046 15.2164 18.7582 12.9064 19.6987 12.1233C20.7442 13.9171 22.3059 16.6252 24.3925 20.2389Z" fill="white"/>
<defs>
<linearGradient id="paint0_linear_69_2533" x1="17.4978" y1="0" x2="17.4978" y2="35" gradientUnits="userSpaceOnUse">
<stop stop-color="#0ED4FC"/>
<stop offset="1" stop-color="#0C57EF"/>
</linearGradient>
</defs>
</svg>
