<svg width="40" height="29" viewBox="0 0 40 29" fill="none" xmlns="http://www.w3.org/2000/svg">
<path d="M0 3C0 1.34315 1.34315 0 3 0H37C38.6569 0 40 1.34315 40 3V26C40 27.6569 38.6569 29 37 29H3C1.34315 29 0 27.6569 0 26V3Z" fill="#1A47B8"/>
<path d="M36.1905 0H3.80952C1.70558 0 0 1.73117 0 3.86667V25.1333C0 27.2688 1.70558 29 3.80952 29H36.1905C38.2944 29 40 27.2688 40 25.1333V3.86667C40 1.73117 38.2944 0 36.1905 0Z" fill="#1A47B8"/>
<path opacity="0.5" fill-rule="evenodd" clip-rule="evenodd" d="M7.61914 22.2333L9.5239 21.2667L10.4763 19.3333L11.4287 21.2667L13.3334 22.2333L11.4287 23.2L10.4763 25.1333L9.5239 23.2L7.61914 22.2333ZM26.6668 5.79999V7.73332H28.5715V5.79999H26.6668ZM32.381 7.73332V9.66665H34.2858V7.73332H32.381ZM24.762 11.6V13.5333H26.6668V11.6H24.762ZM30.4763 13.5333V15.4667H32.381V13.5333H30.4763ZM28.5715 19.3333V21.2667H30.4763V19.3333H28.5715Z" fill="white"/>
<path d="M17.1424 1.93335H3.80906C2.75709 1.93335 1.9043 2.79893 1.9043 3.86668V13.5333C1.9043 14.6011 2.75709 15.4667 3.80906 15.4667H17.1424C18.1944 15.4667 19.0472 14.6011 19.0472 13.5333V3.86668C19.0472 2.79893 18.1944 1.93335 17.1424 1.93335Z" fill="white"/>
<path fill-rule="evenodd" clip-rule="evenodd" d="M9.52288 9.66664H3.80859V7.7333H9.52288V3.86664H11.4276V7.7333H17.1419V9.66664H11.4276V13.5333H9.52288V9.66664ZM14.2848 11.6V13.5333H17.1419V11.6H14.2848ZM14.2848 3.86664V5.79997H17.1419V3.86664H14.2848ZM3.80859 11.6V13.5333H6.66574V11.6H3.80859ZM3.80859 3.86664V5.79997H6.66574V3.86664H3.80859Z" fill="#F93939"/>
</svg>
