<svg width="24" height="17" viewBox="0 0 24 17" fill="none" xmlns="http://www.w3.org/2000/svg">
<path fill-rule="evenodd" clip-rule="evenodd" d="M9.47713 0.0243322C5.42717 0.100345 3.04881 0.289921 2.30504 0.595848C1.63045 0.873346 1.06053 1.39429 0.725608 2.03954C0.29093 2.877 0.0615783 4.70982 0.00791938 7.77481C-0.0349778 10.2225 0.0978682 12.4494 0.370668 13.8559C0.668295 15.3905 1.48309 16.2663 2.89229 16.5664C4.17235 16.8391 7.57093 17.0003 12.0299 17C16.5828 16.9997 19.8309 16.8455 21.19 16.5652C21.6338 16.4736 22.2662 16.1577 22.5974 15.862C22.942 15.5544 23.2936 15.0208 23.4397 14.5835C23.8386 13.39 24.0841 9.90956 23.9734 7.0196C23.8231 3.09966 23.5071 1.8679 22.4427 1.05198C21.9496 0.67404 21.6107 0.536051 20.851 0.40389C19.9109 0.24031 17.6439 0.0958857 15.2585 0.0475921C12.4631 -0.00896149 11.4645 -0.0130155 9.47713 0.0243322ZM12.7066 6.6743C14.3923 7.6577 15.7696 8.48432 15.7673 8.51128C15.7639 8.5502 9.68175 12.1329 9.61908 12.1329C9.60982 12.1329 9.60226 10.5024 9.60226 8.50961C9.60226 6.5168 9.61112 4.88632 9.62193 4.88632C9.6328 4.88632 11.0209 5.6909 12.7066 6.6743Z" fill="white"/>
</svg>
