<svg width="26" height="22" viewBox="0 0 26 22" fill="none" xmlns="http://www.w3.org/2000/svg">
<path fill-rule="evenodd" clip-rule="evenodd" d="M24.2488 0.119509C22.5181 0.766289 1.18858 9.09085 0.874418 9.24216C-0.16951 9.74481 -0.291553 10.4087 0.577497 10.8578C0.661402 10.9012 2.10512 11.3702 3.78576 11.9001L6.84152 12.8636L13.7802 8.45404C17.5964 6.02877 20.7957 4.01724 20.8896 3.98402C21.1253 3.90054 21.3281 3.90834 21.4227 4.00453C21.489 4.07185 21.4918 4.10563 21.4391 4.20456C21.4042 4.27001 18.87 6.60803 15.8075 9.40014C12.745 12.1922 10.231 14.4985 10.2209 14.5253C10.2108 14.552 10.1072 15.946 9.9907 17.623L9.77885 20.6722L10.0091 20.6406C10.1357 20.6233 10.3362 20.5569 10.4546 20.4931C10.5731 20.4294 11.3704 19.6956 12.2265 18.8627C13.0825 18.0297 13.8126 17.3366 13.8488 17.3224C13.885 17.3083 15.2483 18.2893 16.8783 19.5025C18.5083 20.7156 19.9696 21.7682 20.1257 21.8414C20.5351 22.0336 20.9964 22.0527 21.296 21.8899C21.5636 21.7444 21.8251 21.3831 21.9351 21.0069C21.9776 20.8612 22.9095 16.4872 24.0059 11.2867C25.8313 2.62821 25.9994 1.78993 26 1.34054C26.0006 0.915948 25.9832 0.814953 25.8712 0.591473C25.7923 0.43391 25.6576 0.273042 25.526 0.179021C25.2251 -0.0359873 24.727 -0.0591826 24.2488 0.119509Z" fill="white"/>
</svg>
