<svg width="23" height="23" viewBox="0 0 23 23" fill="none" xmlns="http://www.w3.org/2000/svg">
<path fill-rule="evenodd" clip-rule="evenodd" d="M4.28813 0.233968C3.09937 0.606305 1.81456 1.54998 1.11745 2.56252C0.00705522 4.17549 -0.0433188 4.60368 0.0162634 11.9143L0.0698873 18.4814L0.547989 19.5022C1.15681 20.8021 2.2654 21.9119 3.56393 22.5214L4.58369 23H11.5349H18.4862L19.506 22.5214C20.8045 21.9119 21.9131 20.8021 22.5219 19.5022L23 18.4814V11.5226V4.56392L22.5219 3.54306C21.9131 2.24314 20.8045 1.13336 19.506 0.523885L18.4862 0.0452694L11.8058 0.0083972C6.39499 -0.0212451 4.96628 0.0215917 4.28813 0.233968ZM16.6446 4.40378C17.4569 4.81407 18.1899 5.53452 18.5931 6.31896C18.9051 6.92645 18.9376 7.41681 18.9376 11.5226C18.9376 16.5128 18.8814 16.8091 17.7355 17.8733C16.5297 18.9929 16.3642 19.0236 11.5349 19.0236C6.70572 19.0236 6.54015 18.9929 5.33442 17.8733C4.18846 16.8091 4.13231 16.5128 4.13231 11.5226C4.13231 6.53224 4.18864 6.23509 5.33442 5.17285C6.44103 4.14712 6.55785 4.12705 11.4988 4.11928C15.3536 4.11314 16.1569 4.1576 16.6446 4.40378ZM6.79744 5.74997C6.38488 5.96813 5.98116 6.38385 5.75926 6.81926C5.42795 7.46941 5.39617 7.88115 5.39617 11.5226C5.39617 16.0968 5.5027 16.532 6.80141 17.2628C7.48733 17.6487 7.71229 17.668 11.5216 17.668C15.1741 17.668 15.5833 17.6364 16.234 17.3042C16.6928 17.0699 17.0763 16.686 17.3103 16.2267C17.6421 15.5757 17.6737 15.1656 17.6737 11.5226C17.6737 7.8797 17.6421 7.46959 17.3103 6.81854C17.0763 6.35927 16.6928 5.97536 16.234 5.74112C15.5813 5.40782 15.1834 5.378 11.497 5.38523C7.84771 5.39246 7.40951 5.42644 6.79744 5.74997ZM15.9585 7.6366C15.9585 8.1181 15.898 8.17883 15.4193 8.17883C15.0427 8.17883 14.8611 8.08033 14.8172 7.85205C14.7044 7.26571 14.9331 6.97633 15.4609 7.03706C15.8807 7.08532 15.9585 7.17913 15.9585 7.6366ZM12.5238 8.28999C13.4844 8.55696 14.515 9.61522 14.7822 10.609C15.6773 13.9367 11.5949 16.3245 9.16646 13.8937C7.40283 12.1281 8.05209 9.18631 10.3893 8.35217C11.2462 8.04635 11.6088 8.03568 12.5238 8.28999ZM10.1627 10.149C9.65955 10.6527 9.54887 10.9003 9.54887 11.5226C9.54887 12.1449 9.65955 12.3926 10.1627 12.8963C10.6659 13.4 10.9133 13.5108 11.5349 13.5108C12.1566 13.5108 12.4039 13.4 12.9071 12.8963C13.4103 12.3926 13.521 12.1449 13.521 11.5226C13.521 10.9003 13.4103 10.6527 12.9071 10.149C12.4039 9.64523 12.1566 9.53443 11.5349 9.53443C10.9133 9.53443 10.6659 9.64523 10.1627 10.149Z" fill="white"/>
</svg>
