<svg width="707" height="516" viewBox="0 0 707 516" fill="none" xmlns="http://www.w3.org/2000/svg">
<path opacity="0.17" d="M659.893 272.477C658.653 228.671 622.702 193 578.694 193C548.322 193 521.669 209.897 508.033 235.555C501.835 231.8 494.397 229.923 486.959 229.923C464.645 229.923 446.05 247.445 444.81 269.348C422.496 278.735 407 300.639 407 325.671C407 359.465 434.273 387 467.744 387H649.975C681.587 387 707 361.342 707 329.426C707 301.265 686.545 277.484 659.893 272.477Z" fill="white"/>
<path opacity="0.17" d="M216.645 68.0065C215.583 30.5226 184.785 0 147.085 0C121.066 0 98.2335 14.4581 86.5516 36.4129C81.2417 33.2 74.8698 31.5935 68.4979 31.5935C49.3822 31.5935 33.4525 46.5871 32.3905 65.329C13.2748 73.3613 0 92.1032 0 113.523C0 142.439 23.3636 166 52.0372 166H208.149C235.229 166 257 144.045 257 116.735C257 92.6387 239.477 72.2903 216.645 68.0065Z" fill="white"/>
<g style="mix-blend-mode:multiply" opacity="0.25" filter="url(#filter0_f_201_84)">
<g style="mix-blend-mode:multiply" opacity="0.25">
<path d="M275.938 496C357.819 496 424.197 486.076 424.197 473.833C424.197 461.591 357.819 451.667 275.938 451.667C194.056 451.667 127.678 461.591 127.678 473.833C127.678 486.076 194.056 496 275.938 496Z" fill="black"/>
</g>
</g>
<path d="M440.956 426.495C424.283 462.435 376.299 471.478 367.499 437.382C362.43 417.741 332.449 404.878 320.398 442.426C310.865 472.126 244.698 473.806 241.895 420.507C240.601 395.912 218.344 392.423 204.886 420.507C191.428 448.588 169.56 454.192 151.055 454.192C132.551 454.192 109 435.7 109 402.077C109 368.454 128.676 330.784 134.233 293.922C142.107 240.471 143.566 177.675 178.302 134.362C239.438 58.3339 345.5 69.8533 399.687 148.186C430.718 192.881 420.819 262.488 426.377 314.096C429.157 338.055 452.655 401.279 440.956 426.495Z" fill="white"/>
<path d="M270.714 319.531C263.541 317.238 254.477 312.105 252.822 307.517C246.142 294.128 250.08 281.971 267.184 283.806C277.55 285.182 288.921 285.125 293.887 284.667C304.37 283.29 312.637 278.852 315.947 290.78C318.706 301.331 310.439 312.191 294.99 319.073C287.818 321.825 279.542 322.284 270.714 319.531Z" fill="#252C36"/>
<path d="M265.446 315.234C267.62 316.132 269.25 317.48 271.424 317.93C280.663 320.626 288.272 320.176 295.337 317.031C297.511 316.132 299.142 315.234 300.772 314.335C300.229 313.886 300.229 312.987 299.142 312.089C298.055 310.292 294.25 308.495 289.903 308.045C284.468 307.147 280.12 307.147 276.315 308.045C269.794 309.842 265.989 312.538 265.446 315.234Z" fill="#DD0B2B"/>
<path d="M274.053 286.705C268.577 286.128 263.101 285.744 261.047 285.623C258.857 285.478 256.712 286.284 255.913 286.705C257.624 288.987 265.497 293.624 283.295 293.913C301.093 294.201 307.596 287.786 308.623 284.542C308.052 284.302 305.542 284.182 300.066 285.623C293.22 287.426 280.899 287.426 274.053 286.705Z" fill="white"/>
<path d="M216.662 267.024C225.952 267.024 233.484 259.497 233.484 250.212C233.484 240.927 225.952 233.401 216.662 233.401C207.371 233.401 199.839 240.927 199.839 250.212C199.839 259.497 207.371 267.024 216.662 267.024Z" fill="#252C36"/>
<path d="M355.725 267.024C365.016 267.024 372.546 259.497 372.546 250.212C372.546 240.927 365.016 233.401 355.725 233.401C346.435 233.401 338.902 240.927 338.902 250.212C338.902 259.497 346.435 267.024 355.725 267.024Z" fill="#252C36"/>
<path d="M210.774 251.892C214.025 251.892 216.662 249.258 216.662 246.008C216.662 242.759 214.025 240.124 210.774 240.124C207.522 240.124 204.886 242.759 204.886 246.008C204.886 249.258 207.522 251.892 210.774 251.892Z" fill="white"/>
<path d="M349.836 251.892C353.087 251.892 355.725 249.258 355.725 246.008C355.725 242.759 353.087 240.124 349.836 240.124C346.584 240.124 343.949 242.759 343.949 246.008C343.949 249.258 346.584 251.892 349.836 251.892Z" fill="white"/>
<defs>
<filter id="filter0_f_201_84" x="107.678" y="431.667" width="336.519" height="84.3334" filterUnits="userSpaceOnUse" color-interpolation-filters="sRGB">
<feFlood flood-opacity="0" result="BackgroundImageFix"/>
<feBlend mode="normal" in="SourceGraphic" in2="BackgroundImageFix" result="shape"/>
<feGaussianBlur stdDeviation="10" result="effect1_foregroundBlur_201_84"/>
</filter>
</defs>
</svg>
