<svg width="602" height="311" viewBox="0 0 602 311" fill="none" xmlns="http://www.w3.org/2000/svg">
<path opacity="0.17" d="M569.967 53.9818C569.124 24.228 544.678 0 514.752 0C494.099 0 475.975 11.4764 466.702 28.9036C462.488 26.3533 457.43 25.0781 452.372 25.0781C437.198 25.0781 424.554 36.9796 423.711 51.8565C408.537 58.2323 398 73.1092 398 90.1113C398 113.064 416.545 131.767 439.306 131.767H563.223C584.719 131.767 602 114.339 602 92.6616C602 73.5342 588.091 57.3822 569.967 53.9818Z" fill="white"/>
<path opacity="0.17" d="M171.967 156.982C171.124 127.228 146.678 103 116.752 103C96.0992 103 77.9752 114.476 68.7025 131.904C64.4876 129.353 59.4297 128.078 54.3719 128.078C39.1983 128.078 26.5537 139.98 25.7107 154.857C10.5372 161.232 0 176.109 0 193.111C0 216.064 18.5455 234.767 41.3058 234.767H165.223C186.719 234.767 204 217.339 204 195.662C204 176.534 190.091 160.382 171.967 156.982Z" fill="white"/>
<g style="mix-blend-mode:multiply" opacity="0.25" filter="url(#filter0_f_214_55)">
<g style="mix-blend-mode:multiply" opacity="0.25">
<path d="M288.21 290.134C342.758 290.134 386.978 283.522 386.978 275.367C386.978 267.211 342.758 260.599 288.21 260.599C233.662 260.599 189.442 267.211 189.442 275.367C189.442 283.522 233.662 290.134 288.21 290.134Z" fill="black"/>
</g>
</g>
<path d="M398.144 243.83C387.036 267.773 355.07 273.798 349.208 251.083C345.831 237.999 325.858 229.43 317.83 254.443C311.479 274.229 267.4 275.348 265.532 239.841C264.67 223.457 249.843 221.133 240.878 239.841C231.912 258.549 217.344 262.282 205.016 262.282C192.689 262.282 177 249.963 177 227.564C177 205.164 190.108 180.07 193.81 155.513C199.055 119.905 200.027 78.0712 223.168 49.2166C263.896 -1.43217 334.552 6.24188 370.651 58.4256C391.323 88.201 384.729 134.572 388.431 168.952C390.283 184.913 405.937 227.032 398.144 243.83Z" fill="white"/>
<path d="M284.731 172.573C279.953 171.045 273.914 167.626 272.812 164.57C268.361 155.65 270.985 147.551 282.379 148.773C289.285 149.69 296.86 149.652 300.168 149.347C307.152 148.43 312.659 145.474 314.865 153.419C316.702 160.448 311.195 167.683 300.903 172.268C296.125 174.101 290.612 174.407 284.731 172.573Z" fill="#252C36"/>
<path d="M281.221 169.71C282.669 170.309 283.755 171.207 285.203 171.506C291.358 173.302 296.427 173.003 301.134 170.908C302.582 170.309 303.668 169.71 304.755 169.112C304.392 168.812 304.392 168.214 303.668 167.615C302.944 166.418 300.41 165.221 297.513 164.921C293.893 164.323 290.996 164.323 288.462 164.921C284.117 166.119 281.583 167.914 281.221 169.71Z" fill="#DD0B2B"/>
<path d="M286.955 150.705C283.307 150.32 279.658 150.064 278.29 149.984C276.831 149.888 275.402 150.424 274.87 150.705C276.01 152.225 281.255 155.314 293.111 155.506C304.968 155.699 309.3 151.425 309.984 149.264C309.604 149.104 307.932 149.024 304.284 149.984C299.724 151.185 291.515 151.185 286.955 150.705Z" fill="white"/>
<path d="M248.722 137.593C254.911 137.593 259.929 132.579 259.929 126.394C259.929 120.209 254.911 115.194 248.722 115.194C242.533 115.194 237.516 120.209 237.516 126.394C237.516 132.579 242.533 137.593 248.722 137.593Z" fill="#252C36"/>
<path d="M341.365 137.593C347.554 137.593 352.57 132.579 352.57 126.394C352.57 120.209 347.554 115.194 341.365 115.194C335.175 115.194 330.157 120.209 330.157 126.394C330.157 132.579 335.175 137.593 341.365 137.593Z" fill="#252C36"/>
<path d="M244.8 127.513C246.966 127.513 248.723 125.758 248.723 123.593C248.723 121.429 246.966 119.674 244.8 119.674C242.634 119.674 240.878 121.429 240.878 123.593C240.878 125.758 242.634 127.513 244.8 127.513Z" fill="white"/>
<path d="M337.44 127.513C339.606 127.513 341.364 125.758 341.364 123.593C341.364 121.429 339.606 119.674 337.44 119.674C335.274 119.674 333.519 121.429 333.519 123.593C333.519 125.758 335.274 127.513 337.44 127.513Z" fill="white"/>
<defs>
<filter id="filter0_f_214_55" x="169.442" y="240.599" width="237.536" height="69.5341" filterUnits="userSpaceOnUse" color-interpolation-filters="sRGB">
<feFlood flood-opacity="0" result="BackgroundImageFix"/>
<feBlend mode="normal" in="SourceGraphic" in2="BackgroundImageFix" result="shape"/>
<feGaussianBlur stdDeviation="10" result="effect1_foregroundBlur_214_55"/>
</filter>
</defs>
</svg>
