<svg width="247" height="50" viewBox="0 0 247 50" fill="none" xmlns="http://www.w3.org/2000/svg">
<g clip-path="url(#clip0_201_67)">
<path d="M50 13H59.9L64.7 28.4L69.7 13H79.5L69 36H60L50 13Z" fill="white"/>
<path d="M81.3 13H98.3C104.8 13 108.3 15.8 108.3 20.5C108.3 25.2 104.8 28 98.3 28H90V36.1H81.2V13H81.3ZM90.1 17.9V22.8H94.9C97.5 22.8 98.7 22.3 98.7 20.3C98.7 18.4 97.6 17.9 94.9 17.9H90.1Z" fill="white"/>
<path d="M110.9 13H121.3L130.1 26.2V13H138.6V36H128.7L119.2 22.6V36H110.9V13V13Z" fill="white"/>
<path d="M149.6 13H162.6L166.5 27L170.6 13H183.5V36H175.4V18.1L170 36.1H163.1L157.7 18.1V36.1H149.6V13Z" fill="white"/>
<path d="M195.4 13H206.6L215.7 36H206.2L205.4 33.7H195.8L194.9 36H185.5L195.4 13ZM203.4 28.1L200.6 20L197.7 28.1H203.4Z" fill="white"/>
<path d="M226.1 23.9L217.4 13H228.1L231.2 17.9L234.6 13H245.1L236.3 23.9L246.2 36.1H235.2L231.2 29.9L227.1 36.1H216.2L226.1 23.9Z" fill="white"/>
<g opacity="0.25">
<path opacity="0.25" d="M20 49.6C29.8307 49.6 37.8 48.3912 37.8 46.9C37.8 45.4088 29.8307 44.2 20 44.2C10.1693 44.2 2.20001 45.4088 2.20001 46.9C2.20001 48.3912 10.1693 49.6 20 49.6Z" fill="black"/>
</g>
<path d="M39.8 41.2C37.8 45.5 32 46.6 31 42.5C30.4 40.1 26.8 38.6 25.4 43.1C24.3 46.7 16.3 46.9 16 40.5C15.8 37.6 13.2 37.1 11.6 40.5C9.99998 43.9 7.39998 44.5 5.09998 44.5C2.79998 44.5 0.0999756 42.3 0.0999756 38.2C0.0999756 34.1 2.49998 29.6 3.09998 25.2C3.99998 18.9 4.09998 11.4 8.29998 6.2C15.6 -2.9 28.3 -1.5 34.8 7.9C38.5 13.3 37.3 21.6 38 27.8C38.4 30.6 41.2 38.2 39.8 41.2Z" fill="white"/>
<path d="M19.4 28.4C18.5 28.1 17.5 27.5 17.3 27C16.5 25.4 17 23.9 19 24.2C20.2 24.4 21.6 24.4 22.2 24.3C23.5 24.1 24.4 23.6 24.8 25C25.1 26.3 24.1 27.6 22.3 28.4C21.4 28.6 20.4 28.7 19.4 28.4Z" fill="#252C36"/>
<path d="M18.8 27.9C19.1 28 19.3 28.2 19.5 28.2C20.6 28.5 21.5 28.5 22.4 28.1C22.7 28 22.9 27.9 23.1 27.8C23 27.7 23 27.6 22.9 27.5C22.8 27.3 22.3 27.1 21.8 27C21.1 26.9 20.6 26.9 20.2 27C19.3 27.2 18.8 27.5 18.8 27.9Z" fill="#DD0B2B"/>
<path d="M19.8 24.4C19.1 24.3 18.5 24.3 18.2 24.3C17.9 24.3 17.7 24.4 17.6 24.4C17.8 24.7 18.7 25.2 20.9 25.3C23 25.3 23.8 24.6 23.9 24.2C23.8 24.2 23.5 24.2 22.9 24.3C22.1 24.5 20.6 24.5 19.8 24.4Z" fill="white"/>
<path d="M12.9 22.1C14 22.1 14.9 21.2 14.9 20.1C14.9 19 14 18.1 12.9 18.1C11.8 18.1 10.9 19 10.9 20.1C10.9 21.2 11.8 22.1 12.9 22.1Z" fill="#252C36"/>
<path d="M29.6 22.1C30.7 22.1 31.6 21.2 31.6 20.1C31.6 19 30.7 18.1 29.6 18.1C28.5 18.1 27.6 19 27.6 20.1C27.6 21.2 28.5 22.1 29.6 22.1Z" fill="#252C36"/>
<path d="M12.2 20.3C12.6 20.3 12.9 20 12.9 19.6C12.9 19.2 12.6 18.9 12.2 18.9C11.8 18.9 11.5 19.2 11.5 19.6C11.5 19.9 11.8 20.3 12.2 20.3Z" fill="white"/>
<path d="M28.9 20.3C29.3 20.3 29.6 20 29.6 19.6C29.6 19.2 29.3 18.9 28.9 18.9C28.5 18.9 28.2 19.2 28.2 19.6C28.2 19.9 28.5 20.3 28.9 20.3Z" fill="white"/>
</g>
<defs>
<clipPath id="clip0_201_67">
<rect width="246.3" height="49.5" fill="white"/>
</clipPath>
</defs>
</svg>
