<svg width="300" height="300" viewBox="0 0 300 300" fill="none" xmlns="http://www.w3.org/2000/svg">
<circle cx="150" cy="150" r="150" fill="#0090F8"/>
<g style="mix-blend-mode:multiply" opacity="0.25" filter="url(#filter0_f_210_627)">
<g style="mix-blend-mode:multiply" opacity="0.25">
<path d="M149.938 252.188C190.619 252.188 223.597 247.257 223.597 241.175C223.597 235.093 190.619 230.162 149.938 230.162C109.258 230.162 76.2798 235.093 76.2798 241.175C76.2798 247.257 109.258 252.188 149.938 252.188Z" fill="black"/>
</g>
</g>
<path d="M231.924 217.656C223.64 235.512 199.8 240.005 195.428 223.065C192.91 213.307 178.015 206.916 172.027 225.571C167.291 240.327 134.418 241.161 133.025 214.681C132.382 202.462 121.325 200.729 114.638 214.681C107.952 228.633 97.0874 231.417 87.894 231.417C78.7007 231.417 67 222.229 67 205.525C67 188.82 76.7753 170.105 79.5364 151.791C83.4482 125.235 84.1731 94.037 101.431 72.5179C131.805 34.7453 184.498 40.4684 211.42 79.3857C226.837 101.592 221.919 136.174 224.68 161.814C226.062 173.717 237.736 205.129 231.924 217.656Z" fill="white"/>
<path d="M147.343 164.514C143.78 163.375 139.276 160.825 138.454 158.545C135.135 151.893 137.092 145.853 145.589 146.765C150.74 147.449 156.389 147.421 158.856 147.193C164.064 146.509 168.171 144.304 169.816 150.23C171.187 155.472 167.08 160.868 159.404 164.286C155.841 165.654 151.729 165.882 147.343 164.514Z" fill="#252C36"/>
<path d="M144.726 162.379C145.806 162.826 146.616 163.495 147.696 163.718C152.286 165.058 156.066 164.835 159.576 163.272C160.656 162.826 161.466 162.379 162.277 161.933C162.006 161.71 162.006 161.263 161.466 160.817C160.927 159.924 159.036 159.031 156.876 158.808C154.176 158.361 152.016 158.361 150.126 158.808C146.886 159.701 144.996 161.04 144.726 162.379Z" fill="#DD0B2B"/>
<path d="M149.002 148.205C146.281 147.919 143.56 147.728 142.54 147.668C141.452 147.596 140.386 147.996 139.989 148.205C140.839 149.339 144.751 151.643 153.593 151.786C162.435 151.93 165.666 148.742 166.177 147.131C165.893 147.011 164.646 146.952 161.925 147.668C158.524 148.563 152.403 148.563 149.002 148.205Z" fill="white"/>
<path d="M120.489 138.427C125.105 138.427 128.846 134.688 128.846 130.075C128.846 125.462 125.105 121.723 120.489 121.723C115.873 121.723 112.131 125.462 112.131 130.075C112.131 134.688 115.873 138.427 120.489 138.427Z" fill="#252C36"/>
<path d="M189.579 138.427C194.195 138.427 197.936 134.688 197.936 130.075C197.936 125.462 194.195 121.723 189.579 121.723C184.963 121.723 181.221 125.462 181.221 130.075C181.221 134.688 184.963 138.427 189.579 138.427Z" fill="#252C36"/>
<path d="M117.564 130.91C119.179 130.91 120.489 129.601 120.489 127.986C120.489 126.372 119.179 125.063 117.564 125.063C115.948 125.063 114.639 126.372 114.639 127.986C114.639 129.601 115.948 130.91 117.564 130.91Z" fill="white"/>
<path d="M186.653 130.91C188.268 130.91 189.579 129.601 189.579 127.986C189.579 126.372 188.268 125.063 186.653 125.063C185.037 125.063 183.728 126.372 183.728 127.986C183.728 129.601 185.037 130.91 186.653 130.91Z" fill="white"/>
<defs>
<filter id="filter0_f_210_627" x="56.2798" y="210.162" width="187.317" height="62.0258" filterUnits="userSpaceOnUse" color-interpolation-filters="sRGB">
<feFlood flood-opacity="0" result="BackgroundImageFix"/>
<feBlend mode="normal" in="SourceGraphic" in2="BackgroundImageFix" result="shape"/>
<feGaussianBlur stdDeviation="10" result="effect1_foregroundBlur_210_627"/>
</filter>
</defs>
</svg>
