<svg width="150" height="150" viewBox="0 0 150 150" fill="none" xmlns="http://www.w3.org/2000/svg">
<circle cx="75" cy="75" r="75" fill="#006FC3"/>
<path d="M24.722 114V112.668L25.0203 112.658C25.4247 112.648 25.7429 112.51 25.9749 112.245C26.2102 111.98 26.3809 111.552 26.4869 110.962C26.5963 110.372 26.6692 109.585 26.7057 108.601L26.8797 103.818H33.3179V114H31.8016V105.121H28.3264L28.1673 109.009C28.1243 110.099 28.0149 111.015 27.8392 111.758C27.6636 112.497 27.3653 113.055 26.9443 113.433C26.5267 113.811 25.9318 114 25.1595 114H24.722ZM36.3754 116.864C36.1534 116.864 35.9512 116.845 35.7689 116.809C35.5866 116.776 35.4507 116.739 35.3612 116.7L35.7192 115.482C35.991 115.554 36.2329 115.586 36.445 115.576C36.6572 115.566 36.8444 115.487 37.0068 115.337C37.1726 115.188 37.3184 114.945 37.4443 114.607L37.6283 114.099L34.8343 106.364H36.4252L38.3591 112.29H38.4387L40.3726 106.364H41.9685L38.8215 115.019C38.6756 115.417 38.49 115.753 38.2646 116.028C38.0393 116.307 37.7708 116.516 37.4593 116.655C37.1477 116.794 36.7864 116.864 36.3754 116.864ZM49.2767 106.364V114H47.825V106.364H49.2767ZM48.6453 109.908V111.191C48.4166 111.284 48.1747 111.367 47.9195 111.44C47.6643 111.509 47.3958 111.564 47.1141 111.604C46.8324 111.643 46.539 111.663 46.2341 111.663C45.2895 111.663 44.5388 111.433 43.982 110.972C43.4252 110.508 43.1468 109.799 43.1468 108.844V106.349H44.5935V108.844C44.5935 109.206 44.6598 109.499 44.7923 109.724C44.9249 109.95 45.1138 110.116 45.3591 110.222C45.6044 110.328 45.896 110.381 46.2341 110.381C46.6816 110.381 47.0942 110.339 47.472 110.256C47.8532 110.17 48.2443 110.054 48.6453 109.908ZM51.2542 106.364H52.7108V112.712H55.3508V106.364H56.8074V112.712H59.4474V106.364H60.904V114H51.2542V106.364ZM64.3456 111.917L67.7114 106.364H69.3122V114H67.8556V108.442L64.5047 114H62.8889V106.364H64.3456V111.917ZM72.7675 111.917L76.1333 106.364H77.7341V114H76.2774V108.442L72.9266 114H71.3108V106.364H72.7675V111.917ZM75.4969 103.778H76.7199C76.7199 104.339 76.521 104.794 76.1233 105.146C75.7289 105.494 75.1953 105.668 74.5225 105.668C73.853 105.668 73.321 105.494 72.9266 105.146C72.5322 104.794 72.335 104.339 72.335 103.778H73.553C73.553 104.027 73.6259 104.247 73.7718 104.44C73.9176 104.629 74.1678 104.723 74.5225 104.723C74.8705 104.723 75.1191 104.629 75.2682 104.44C75.4207 104.251 75.4969 104.03 75.4969 103.778ZM83.4378 114V106.364H86.6047C87.4664 106.364 88.1492 106.548 88.653 106.915C89.1568 107.28 89.4086 107.776 89.4086 108.402C89.4086 108.849 89.2661 109.204 88.9811 109.466C88.6961 109.728 88.3182 109.903 87.8476 109.993C88.189 110.033 88.5022 110.135 88.7872 110.301C89.0722 110.464 89.3009 110.682 89.4733 110.957C89.6489 111.232 89.7368 111.561 89.7368 111.942C89.7368 112.346 89.6324 112.704 89.4236 113.016C89.2148 113.324 88.9115 113.566 88.5138 113.741C88.1193 113.914 87.6437 114 87.0869 114H83.4378ZM84.8348 112.757H87.0869C87.4548 112.757 87.7432 112.669 87.952 112.494C88.1608 112.318 88.2652 112.079 88.2652 111.778C88.2652 111.423 88.1608 111.145 87.952 110.942C87.7432 110.737 87.4548 110.634 87.0869 110.634H84.8348V112.757ZM84.8348 109.545H86.6196C86.898 109.545 87.1366 109.506 87.3355 109.426C87.5377 109.347 87.6918 109.234 87.7979 109.088C87.9072 108.939 87.9619 108.763 87.9619 108.561C87.9619 108.266 87.8409 108.036 87.599 107.87C87.357 107.704 87.0256 107.621 86.6047 107.621H84.8348V109.545ZM92.4861 108.989H94.7034C95.6381 108.989 96.3573 109.221 96.8611 109.685C97.3648 110.149 97.6167 110.747 97.6167 111.479C97.6167 111.957 97.5041 112.386 97.2787 112.767C97.0533 113.148 96.7235 113.45 96.2893 113.672C95.8551 113.891 95.3265 114 94.7034 114H91.3675V106.364H92.8241V112.717H94.7034C95.1309 112.717 95.4823 112.606 95.7574 112.384C96.0325 112.159 96.17 111.872 96.17 111.524C96.17 111.156 96.0325 110.856 95.7574 110.624C95.4823 110.389 95.1309 110.271 94.7034 110.271H92.4861V108.989ZM98.7006 114V106.364H100.187V114H98.7006ZM108.073 103.52L108.69 104.46C108.461 104.668 108.201 104.817 107.909 104.907C107.621 104.993 107.288 105.048 106.91 105.071C106.532 105.091 106.1 105.109 105.612 105.126C105.062 105.142 104.61 105.262 104.255 105.484C103.9 105.702 103.627 106.027 103.435 106.458C103.246 106.886 103.123 107.423 103.067 108.069H103.161C103.41 107.595 103.755 107.24 104.195 107.005C104.64 106.77 105.138 106.652 105.692 106.652C106.308 106.652 106.857 106.793 107.337 107.075C107.818 107.356 108.196 107.769 108.471 108.312C108.749 108.853 108.889 109.514 108.889 110.296C108.889 111.088 108.743 111.773 108.451 112.349C108.163 112.926 107.755 113.372 107.228 113.687C106.704 113.998 106.086 114.154 105.374 114.154C104.661 114.154 104.04 113.993 103.509 113.672C102.982 113.347 102.573 112.866 102.281 112.23C101.993 111.594 101.849 110.808 101.849 109.874V109.118C101.849 107.371 102.16 106.057 102.783 105.175C103.407 104.294 104.338 103.841 105.578 103.818C105.979 103.808 106.336 103.807 106.651 103.813C106.966 103.817 107.241 103.802 107.477 103.768C107.715 103.732 107.914 103.649 108.073 103.52ZM105.379 112.906C105.793 112.906 106.149 112.802 106.448 112.593C106.749 112.381 106.981 112.081 107.144 111.693C107.306 111.305 107.387 110.848 107.387 110.321C107.387 109.804 107.306 109.365 107.144 109.004C106.981 108.642 106.749 108.367 106.448 108.178C106.146 107.986 105.785 107.89 105.364 107.89C105.052 107.89 104.774 107.945 104.528 108.054C104.283 108.16 104.073 108.317 103.897 108.526C103.725 108.735 103.591 108.99 103.494 109.292C103.402 109.59 103.352 109.933 103.345 110.321C103.345 111.11 103.526 111.738 103.887 112.205C104.252 112.673 104.749 112.906 105.379 112.906ZM113.766 114.154C113.05 114.154 112.425 113.99 111.891 113.662C111.358 113.334 110.944 112.875 110.649 112.285C110.354 111.695 110.206 111.005 110.206 110.217C110.206 109.424 110.354 108.732 110.649 108.138C110.944 107.545 111.358 107.085 111.891 106.756C112.425 106.428 113.05 106.264 113.766 106.264C114.482 106.264 115.106 106.428 115.64 106.756C116.174 107.085 116.588 107.545 116.883 108.138C117.178 108.732 117.325 109.424 117.325 110.217C117.325 111.005 117.178 111.695 116.883 112.285C116.588 112.875 116.174 113.334 115.64 113.662C115.106 113.99 114.482 114.154 113.766 114.154ZM113.771 112.906C114.235 112.906 114.619 112.784 114.924 112.538C115.229 112.293 115.454 111.967 115.6 111.559C115.749 111.151 115.824 110.702 115.824 110.212C115.824 109.724 115.749 109.277 115.6 108.869C115.454 108.458 115.229 108.129 114.924 107.88C114.619 107.631 114.235 107.507 113.771 107.507C113.303 107.507 112.916 107.631 112.607 107.88C112.302 108.129 112.075 108.458 111.926 108.869C111.78 109.277 111.707 109.724 111.707 110.212C111.707 110.702 111.78 111.151 111.926 111.559C112.075 111.967 112.302 112.293 112.607 112.538C112.916 112.784 113.303 112.906 113.771 112.906ZM118.985 116.864V106.364H120.436V107.602H120.561C120.647 107.442 120.771 107.259 120.934 107.05C121.096 106.841 121.321 106.659 121.61 106.503C121.898 106.344 122.279 106.264 122.753 106.264C123.37 106.264 123.92 106.42 124.404 106.732C124.888 107.043 125.267 107.492 125.542 108.079C125.821 108.665 125.96 109.371 125.96 110.197C125.96 111.022 125.822 111.73 125.547 112.32C125.272 112.906 124.894 113.359 124.414 113.677C123.933 113.992 123.384 114.149 122.768 114.149C122.304 114.149 121.925 114.071 121.63 113.915C121.338 113.76 121.109 113.577 120.943 113.369C120.778 113.16 120.65 112.974 120.561 112.812H120.471V116.864H118.985ZM120.441 110.182C120.441 110.719 120.519 111.189 120.675 111.594C120.831 111.998 121.056 112.315 121.351 112.543C121.646 112.769 122.007 112.881 122.435 112.881C122.879 112.881 123.25 112.764 123.549 112.528C123.847 112.29 124.072 111.967 124.225 111.559C124.38 111.151 124.458 110.692 124.458 110.182C124.458 109.678 124.382 109.226 124.23 108.825C124.081 108.424 123.855 108.107 123.554 107.875C123.255 107.643 122.882 107.527 122.435 107.527C122.004 107.527 121.639 107.638 121.341 107.86C121.046 108.082 120.822 108.392 120.67 108.79C120.518 109.187 120.441 109.652 120.441 110.182Z" fill="white"/>
<g style="mix-blend-mode:multiply" opacity="0.25" filter="url(#filter0_f_69_2324)">
<ellipse cx="74.9012" cy="91.3349" rx="22.115" ry="3.30855" fill="black"/>
</g>
<path d="M99.5162 84.2694C97.0291 89.6338 89.8717 90.9834 88.559 85.8941C87.803 82.9627 83.3306 81.0428 81.5331 86.6469C80.1112 91.0799 70.2414 91.3308 69.8232 83.3753C69.6302 79.7046 66.3102 79.1837 64.3028 83.3753C62.2954 87.5669 59.0334 88.4034 56.2732 88.4034C53.513 88.4034 50 85.6432 50 80.6246C50 75.6061 52.9349 69.9837 53.7639 64.4817C54.9384 56.5038 55.156 47.131 60.3374 40.6662C69.4567 29.3184 85.2774 31.0378 93.3604 42.7295C97.9891 49.4006 96.5125 59.79 97.3415 67.4928C97.756 71.0691 101.261 80.5055 99.5162 84.2694Z" fill="white"/>
<path d="M74.1221 68.3039C73.0522 67.9615 71.7001 67.1954 71.4532 66.5107C70.4568 64.5121 71.0442 62.6977 73.5955 62.9716C75.1418 63.177 76.838 63.1685 77.5787 63.1C79.1424 62.8946 80.3755 62.2322 80.8693 64.0125C81.2808 65.5874 80.0477 67.2083 77.7433 68.2354C76.6734 68.6462 75.4389 68.7147 74.1221 68.3039Z" fill="#252C36"/>
<path d="M73.3362 67.6628C73.6605 67.7969 73.9037 67.9981 74.2279 68.0652C75.6061 68.4675 76.7411 68.4005 77.795 67.9311C78.1192 67.7969 78.3624 67.6628 78.6056 67.5287C78.5246 67.4616 78.5246 67.3275 78.3624 67.1934C78.2003 66.9252 77.6328 66.6569 76.9843 66.5898C76.1736 66.4557 75.525 66.4557 74.9576 66.5898C73.9847 66.8581 73.4173 67.2605 73.3362 67.6628Z" fill="#DD0B2B"/>
<path d="M74.6201 63.4047C73.8032 63.3187 72.9863 63.2613 72.68 63.2434C72.3533 63.2217 72.0333 63.3419 71.9142 63.4047C72.1695 63.7454 73.3437 64.4375 75.9985 64.4806C78.6534 64.5236 79.6234 63.5661 79.7765 63.082C79.6915 63.0461 79.3171 63.0282 78.5002 63.2434C77.4791 63.5123 75.6411 63.5123 74.6201 63.4047Z" fill="white"/>
<path d="M66.0592 60.4668C67.445 60.4668 68.5685 59.3433 68.5685 57.9575C68.5685 56.5717 67.445 55.4482 66.0592 55.4482C64.6734 55.4482 63.5499 56.5717 63.5499 57.9575C63.5499 59.3433 64.6734 60.4668 66.0592 60.4668Z" fill="#252C36"/>
<path d="M86.8026 60.4668C88.1884 60.4668 89.3119 59.3433 89.3119 57.9575C89.3119 56.5717 88.1884 55.4482 86.8026 55.4482C85.4168 55.4482 84.2933 56.5717 84.2933 57.9575C84.2933 59.3433 85.4168 60.4668 86.8026 60.4668Z" fill="#252C36"/>
<path d="M65.1811 58.2086C65.6661 58.2086 66.0593 57.8154 66.0593 57.3304C66.0593 56.8454 65.6661 56.4521 65.1811 56.4521C64.6961 56.4521 64.3029 56.8454 64.3029 57.3304C64.3029 57.8154 64.6961 58.2086 65.1811 58.2086Z" fill="white"/>
<path d="M85.9243 58.2086C86.4093 58.2086 86.8025 57.8154 86.8025 57.3304C86.8025 56.8454 86.4093 56.4521 85.9243 56.4521C85.4392 56.4521 85.046 56.8454 85.046 57.3304C85.046 57.8154 85.4392 58.2086 85.9243 58.2086Z" fill="white"/>
<defs>
<filter id="filter0_f_69_2324" x="32.7861" y="68.0264" width="84.2301" height="46.6172" filterUnits="userSpaceOnUse" color-interpolation-filters="sRGB">
<feFlood flood-opacity="0" result="BackgroundImageFix"/>
<feBlend mode="normal" in="SourceGraphic" in2="BackgroundImageFix" result="shape"/>
<feGaussianBlur stdDeviation="10" result="effect1_foregroundBlur_69_2324"/>
</filter>
</defs>
</svg>
