<svg width="80" height="80" viewBox="0 0 80 80" fill="none" xmlns="http://www.w3.org/2000/svg">
<path fill-rule="evenodd" clip-rule="evenodd" d="M38.6533 0.203445C37.249 0.727802 36.3501 1.81642 36.0699 3.33238C35.9773 3.83373 35.9014 5.22138 35.9014 6.41609C35.9014 7.61095 35.8353 8.71193 35.7546 8.86293C35.6737 9.01409 35.3394 9.25163 35.0115 9.3912C34.6836 9.53062 33.6499 9.97111 32.7146 10.3701C31.49 10.8926 30.9011 11.0676 30.6112 10.9948C30.3898 10.9391 29.3602 10.0634 28.323 9.04883C27.2859 8.03407 26.194 7.07908 25.8968 6.92636C25.5995 6.7738 24.9283 6.6145 24.405 6.57257C22.7295 6.43799 22.3529 6.69478 18.4269 10.6488C15.3076 13.7907 14.9517 14.2032 14.7046 14.9648C14.3754 15.9788 14.4588 17.01 14.9488 17.985C15.1473 18.3801 16.3402 19.7162 17.8223 21.2034C20.1262 23.5154 20.405 23.7457 20.8937 23.7412C21.4889 23.7357 21.8356 23.5282 22.1098 23.0132C22.5064 22.2682 22.3557 22.0332 19.8763 19.5324C17.4619 17.097 17.0501 16.5275 17.2186 15.8561C17.2679 15.6596 18.7327 14.0801 20.4735 12.3463C23.281 9.55019 23.6961 9.19373 24.1445 9.19373C24.5807 9.19373 24.9363 9.47069 26.7273 11.2057C28.4723 12.8965 28.9369 13.2618 29.6357 13.4941C30.77 13.871 31.618 13.743 33.5828 12.8985C34.4709 12.5169 35.5237 12.084 35.9223 11.9368C36.947 11.558 37.7589 10.8314 38.1883 9.90899C38.5261 9.1834 38.558 8.908 38.5602 6.69008C38.5614 5.35611 38.6359 4.00069 38.7254 3.67819C39.014 2.63871 39.2135 2.60131 44.194 2.65389C48.5026 2.69927 48.5694 2.7049 48.9205 3.05604C49.2601 3.39559 49.2801 3.55098 49.3547 6.43283L49.4329 9.45379L49.9076 10.2235C50.4898 11.1674 51.0828 11.5639 53.2344 12.4474C56.7227 13.8798 56.9952 13.9342 58.3545 13.4711C58.9649 13.2629 59.5374 12.8051 61.1922 11.2021C62.9874 9.46271 63.3336 9.19373 63.7755 9.19373C64.2309 9.19373 64.6351 9.54314 67.536 12.4447C70.446 15.3557 70.7861 15.7497 70.7861 16.2099C70.7861 16.656 70.5309 16.9862 68.8543 18.7095C66.7309 20.8919 66.4189 21.3607 66.298 22.5512C66.209 23.4282 66.3013 23.7398 67.5798 26.8757C68.4407 28.9876 68.8161 29.5326 69.8137 30.1192C70.5345 30.5431 70.6201 30.5547 73.5587 30.6312C76.4266 30.7058 76.5826 30.726 76.922 31.0656C77.2731 31.4167 77.2787 31.4835 77.3241 35.7934C77.3766 40.7754 77.3392 40.9749 76.3 41.2636C75.9776 41.3531 74.6226 41.4276 73.289 41.4288C71.0717 41.431 70.7964 41.4629 70.071 41.8008C69.1488 42.2303 68.4225 43.0424 68.0438 44.0675C67.8966 44.4662 67.4639 45.5193 67.0824 46.4076C66.2381 48.373 66.1101 49.2213 66.487 50.3559C66.7191 51.0549 67.0844 51.5196 68.7747 53.2651C70.5092 55.0566 70.7861 55.4123 70.7861 55.8486C70.7861 56.2972 70.4297 56.7123 67.6344 59.5206C65.9011 61.2619 64.3221 62.7272 64.1256 62.7765C63.4544 62.945 62.8851 62.5331 60.4504 60.1181C58.3193 58.0041 57.9517 57.7019 57.5102 57.7019C56.7933 57.7019 56.2378 58.2957 56.2378 59.0625C56.2378 59.6202 56.3869 59.8029 58.7798 62.1797C60.2458 63.6357 61.6078 64.8489 61.9973 65.0456C62.9705 65.5369 64.0019 65.6208 65.0167 65.2912C65.778 65.044 66.1904 64.688 69.3314 61.5678C73.2843 57.6407 73.541 57.2641 73.4065 55.588C73.3646 55.0646 73.2053 54.3932 73.0528 54.0959C72.9001 53.7985 71.9454 52.7063 70.9309 51.6689C69.9166 50.6314 69.0409 49.6002 68.9849 49.3773C68.9148 49.0981 69.0282 48.6377 69.3491 47.8993C69.6055 47.3094 70.0407 46.2796 70.3165 45.611C70.5921 44.9424 70.9467 44.3263 71.1044 44.2418C71.2623 44.1573 72.3684 44.0883 73.5629 44.0883C77.0306 44.0883 78.2337 43.7228 79.2119 42.3721C79.9831 41.3071 80.0379 40.8301 79.9856 35.6385C79.9398 31.0925 79.9213 30.8362 79.5992 30.24C79.159 29.4255 78.3736 28.6816 77.5909 28.3383C77.0919 28.1193 76.4106 28.0529 74.2276 28.0107C72.7079 27.9813 71.3403 27.883 71.1537 27.7899C70.9686 27.6976 70.7094 27.366 70.5774 27.0532C69.0229 23.3673 68.899 23.024 68.9904 22.653C69.0437 22.4366 69.918 21.4147 70.9333 20.3819C71.9487 19.3491 72.9033 18.2608 73.0548 17.9635C73.2063 17.6662 73.365 16.9881 73.4077 16.4563C73.5446 14.7514 73.1618 14.1694 69.4867 10.4945C66.0508 7.05874 65.3151 6.53814 63.8918 6.53517C62.4433 6.53204 61.8098 6.89898 59.684 8.97231C58.5902 10.039 57.5321 10.9375 57.3015 10.9954C57.0021 11.0707 56.5467 10.9464 55.6629 10.5485C54.9896 10.2456 54.031 9.84577 53.5326 9.66019C52.041 9.10469 52.0527 9.13333 51.9833 5.8548C51.9351 3.5793 51.8683 2.88814 51.6477 2.38694C51.3032 1.60361 50.5596 0.818246 49.7458 0.378074C49.1462 0.0538516 48.9139 0.0383603 44.1924 0.00753412C40.1974 -0.0187542 39.149 0.0184876 38.6533 0.203445ZM40.8031 18.9609C37.6213 19.5657 33.9273 21.4619 32.0778 23.4399C31.2341 24.342 31.1404 24.9442 31.7489 25.5527C32.4114 26.2156 33.0157 26.0846 34.26 25.0083C40.3975 19.6998 49.2878 20.1135 54.7573 25.9624C56.996 28.3565 58.2465 31.1169 58.6243 34.4997C59.0645 38.4395 57.6842 42.6656 54.9514 45.7451C54.4544 46.3051 54.0396 46.8833 54.0297 47.0298C53.9628 48.0197 54.4465 48.6262 55.3026 48.6262C55.7988 48.6262 55.9939 48.5033 56.7318 47.7264C58.9463 45.3946 60.6134 41.9173 61.0944 38.6272C61.3955 36.5666 61.2146 33.2251 60.7094 31.5211C59.753 28.2945 58.387 25.9361 56.2178 23.7662C54.0513 21.599 51.7048 20.2383 48.4651 19.2701C47.2716 18.9134 46.7398 18.8506 44.5053 18.803C42.7628 18.7658 41.56 18.8171 40.8031 18.9609ZM22.3542 27.0175C22.0013 27.1779 21.4689 27.5528 21.1711 27.8507C20.3257 28.6962 20.0496 29.426 19.9415 31.1006C19.8888 31.9182 19.7919 32.7053 19.7266 32.8496C19.6039 33.1203 18.7381 33.5767 17.7237 33.9053C16.9982 34.1404 16.7601 34.0258 15.4597 32.8152C13.9388 31.3992 12.3812 31.0725 10.7549 31.8278C10.4322 31.9777 9.12976 33.1203 7.86077 34.367C5.18264 36.9978 4.77122 37.6406 4.77122 39.1949C4.77122 40.4989 5.05874 41.134 6.17552 42.2973C7.35956 43.5308 7.42933 43.8185 6.88275 45.2121C6.35995 46.5452 6.00735 46.7467 4.1896 46.7519C2.77388 46.7559 1.97513 47.052 1.14759 47.8799C0.0466172 48.9812 0 49.2051 0 53.3987C0 57.5454 0.0214314 57.6526 1.07345 58.7719C1.91099 59.6629 2.63481 59.9423 4.30192 60.0179C5.11928 60.0552 5.9185 60.1541 6.07806 60.2379C6.42675 60.4213 7.27415 62.2277 7.27415 62.7879C7.27415 63.0592 6.9702 63.5133 6.3221 64.2101C5.15761 65.4623 4.73993 66.3465 4.73993 67.56C4.73993 69.0866 5.12961 69.7031 7.73015 72.2916C10.3573 74.9063 10.8621 75.2205 12.4365 75.2205C13.7438 75.2205 14.4171 74.9101 15.7638 73.6863C16.4682 73.046 16.9539 72.7238 17.2142 72.7238C17.7686 72.7238 19.5742 73.5736 19.7564 73.9202C19.8403 74.0798 19.9391 74.8793 19.9764 75.6969C20.0519 77.3644 20.3313 78.0885 21.2221 78.9262C22.341 79.9786 22.4482 80 26.5937 80C30.7739 80 31.0123 79.9512 32.0901 78.8729C32.9449 78.0179 33.137 77.4949 33.2393 75.7421C33.3195 74.3687 33.3827 74.0909 33.6892 73.7645C34.0544 73.3757 35.542 72.7238 36.0643 72.7238C36.2246 72.7238 36.8343 73.1542 37.4192 73.6805C38.7506 74.8782 39.5598 75.2587 40.7753 75.2587C42.2744 75.2587 42.998 74.7979 45.5424 72.2226C46.7581 70.9922 47.9033 69.6864 48.0873 69.3208C48.9176 67.672 48.6182 66.0907 47.184 64.5494C46.0942 63.3781 45.8551 62.9617 45.9822 62.4555C46.1619 61.7392 46.8768 60.386 47.1382 60.2673C47.2818 60.2021 48.0681 60.1055 48.8854 60.0528C50.5596 59.9447 51.2892 59.6685 52.1344 58.8229C53.1875 57.7696 53.2587 57.4259 53.2587 53.3987C53.2587 50.1127 53.231 49.7386 52.94 49.0956C52.2196 47.5038 50.9494 46.7538 48.9636 46.7477C48.2753 46.7456 47.5362 46.6569 47.3211 46.5505C46.8454 46.3155 46.0147 44.6859 46.0103 43.9788C46.0077 43.5826 46.189 43.2873 46.8792 42.5634C48.4089 40.9594 48.8169 39.7025 48.3452 38.0486C48.0961 37.175 47.9406 36.9841 45.4722 34.5189C43.014 32.0638 42.8092 31.8973 41.9395 31.6452C40.2902 31.1671 39.0325 31.5746 37.4259 33.1075C36.695 33.8047 36.4081 33.9798 35.9961 33.9798C35.2914 33.9798 33.6798 33.1511 33.44 32.6654C33.3336 32.4503 33.2449 31.7109 33.2429 31.0224C33.2368 29.0361 32.487 27.7655 30.8956 27.0449C30.2528 26.7538 29.8788 26.7261 26.5937 26.7261C23.4182 26.7261 22.9203 26.7604 22.3542 27.0175ZM30.1316 29.6756C30.4541 29.9368 30.5093 30.1536 30.6009 31.517C30.658 32.367 30.8214 33.3428 30.9643 33.6855C31.3442 34.5978 32.1948 35.3855 33.3991 35.9408C35.8996 37.0938 37.2363 36.9324 39.0128 35.2636C40.1793 34.1678 40.693 33.9532 41.3389 34.2922C42.0133 34.6461 45.7189 38.4842 45.8356 38.9497C45.9711 39.4896 45.7461 39.8989 44.7132 40.9921C43.0218 42.782 42.8853 44.3277 44.1916 46.8968C45.0814 48.6467 46.0818 49.2299 48.4691 49.3904C50.682 49.5391 50.6062 49.3971 50.6062 53.3865C50.6062 57.422 50.6709 57.3205 48.025 57.4277C45.8545 57.5157 44.764 58.3298 43.872 60.5282C42.9513 62.7976 43.1704 64.1727 44.7132 65.8054C46.3781 67.5675 46.3393 67.718 43.4996 70.5107C41.5778 72.4006 41.3613 72.5673 40.8297 72.5673C40.342 72.5673 40.0934 72.4226 39.243 71.6431C37.4076 69.9608 36.2074 69.7003 34.0777 70.522C32.421 71.1609 31.7011 71.7006 31.1485 72.717C30.7698 73.4138 30.6866 73.7752 30.6292 74.9739C30.5915 75.7588 30.4874 76.5517 30.3981 76.7359C30.109 77.331 29.6131 77.4181 26.5169 77.4181C23.6175 77.4181 23.5523 77.4109 23.1218 77.0405C22.7066 76.6834 22.678 76.5742 22.5932 75.0282C22.5176 73.6503 22.4402 73.2857 22.0996 72.7066C21.5316 71.7405 21.1313 71.4112 19.7073 70.739C18.6112 70.2217 18.3162 70.1497 17.2859 70.1489C15.8727 70.148 15.4231 70.3555 14.0341 71.6505C13.202 72.4263 12.9616 72.5673 12.4718 72.5673C11.9357 72.5673 11.7275 72.4022 9.66179 70.3395C7.58874 68.2696 7.43058 68.0704 7.43058 67.5287C7.43058 67.0338 7.56934 66.7967 8.34713 65.9619C9.64177 64.5725 9.8492 64.1228 9.84826 62.7092C9.84748 61.6786 9.77552 61.3835 9.25835 60.2871C8.58631 58.8626 8.25718 58.4622 7.29136 57.894C6.7124 57.5534 6.34791 57.4759 4.97036 57.4004C3.42479 57.3155 3.3156 57.2869 2.95862 56.8716C2.58835 56.441 2.58115 56.3757 2.58115 53.4756C2.58115 50.3784 2.66828 49.8824 3.2632 49.5932C3.44732 49.5039 4.23997 49.3998 5.02464 49.3621C7.46422 49.245 8.50012 48.4422 9.47532 45.9125C10.2966 43.7827 10.0188 42.5127 8.33852 40.7162C7.56293 39.8869 7.43058 39.6589 7.43058 39.1528C7.43058 38.6038 7.577 38.4119 9.42511 36.5387C10.5222 35.4269 11.6208 34.4117 11.8667 34.2828C12.5126 33.944 12.951 34.1194 14.0776 35.1677C15.2799 36.2866 15.9701 36.6099 17.2077 36.6334C17.9388 36.6473 18.4311 36.5357 19.4356 36.1278C21.644 35.2312 22.4784 34.1204 22.5658 31.9613C22.6314 30.3442 22.6944 30.0796 23.1054 29.6967C23.424 29.3997 23.6476 29.3794 26.6059 29.3794C29.473 29.3794 29.7998 29.4068 30.1316 29.6756ZM23.6663 41.7476C16.3063 43.5577 12.4925 51.9097 15.9168 58.719C17.5137 61.8946 20.1614 64.0331 23.71 65.0132C25.2393 65.4355 28.2412 65.3931 29.8788 64.9262C31.8475 64.3647 34.2763 62.9073 35.7716 61.3901C36.6824 60.4661 37.6921 58.4192 38.1924 56.4832C38.543 55.1267 38.5769 54.7449 38.5084 52.9293C38.4294 50.8399 38.2273 49.9332 37.4612 48.235C36.0818 45.1766 32.9567 42.6398 29.4445 41.7272C27.9269 41.3329 25.315 41.3421 23.6663 41.7476ZM28.8619 44.3207C32.1715 45.2006 34.907 47.9467 35.661 51.1459C37.2465 57.8742 31.351 63.9111 24.5934 62.4787C21.524 61.8281 18.8663 59.4657 17.8076 56.4465C16.0089 51.3174 19.0159 45.7298 24.3254 44.3349C25.4503 44.0395 27.7763 44.0321 28.8619 44.3207Z" fill="#00BDD7"/>
</svg>
