<svg width="119" height="130" viewBox="0 0 119 130" fill="none" xmlns="http://www.w3.org/2000/svg">
<path opacity="0.17" d="M101.413 29.9064C100.95 13.4226 87.5289 0 71.0992 0C59.7603 0 49.8099 6.35806 44.719 16.0129C42.405 14.6 39.6281 13.8935 36.8512 13.8935C28.5207 13.8935 21.5785 20.4871 21.1157 28.729C12.7851 32.2613 7 40.5032 7 49.9226C7 62.6387 17.1818 73 29.6777 73H97.7107C109.512 73 119 63.3452 119 51.3355C119 40.7387 111.364 31.7903 101.413 29.9064Z" fill="white"/>
<g style="mix-blend-mode:multiply" opacity="0.25" filter="url(#filter0_f_201_108)">
<ellipse cx="51.8617" cy="104.669" rx="30.9611" ry="4.63197" fill="black"/>
</g>
<path d="M86.3227 94.7771C82.8407 102.287 72.8203 104.177 70.9827 97.0517C69.9242 92.9477 63.6629 90.26 61.1463 98.1056C59.1556 104.312 45.338 104.663 44.7525 93.5254C44.4823 88.3864 39.8343 87.6571 37.0239 93.5254C34.2136 99.3937 29.6467 100.565 25.7824 100.565C21.9182 100.565 17 96.7004 17 89.6745C17 82.6485 21.1088 74.7771 22.2695 67.0743C23.9137 55.9053 24.2184 42.7834 31.4724 33.7327C44.2394 17.8457 66.3883 20.2529 77.7045 36.6212C84.1848 45.9608 82.1174 60.506 83.2781 71.2899C83.8584 76.2967 88.7657 89.5077 86.3227 94.7771Z" fill="white"/>
<path d="M50.7708 72.4258C49.2729 71.9465 47.38 70.874 47.0344 69.9154C45.6394 67.1174 46.4617 64.5772 50.0336 64.9606C52.1984 65.2482 54.573 65.2363 55.61 65.1404C57.7992 64.8529 59.5256 63.9255 60.2169 66.4179C60.793 68.6227 59.0666 70.8921 55.8405 72.33C54.3426 72.9051 52.6143 73.001 50.7708 72.4258Z" fill="#252C36"/>
<path d="M49.6705 71.5278C50.1245 71.7155 50.465 71.9972 50.919 72.0911C52.8484 72.6544 54.4374 72.5605 55.9128 71.9033C56.3668 71.7155 56.7073 71.5278 57.0478 71.34C56.9343 71.2461 56.9343 71.0583 56.7073 70.8706C56.4803 70.495 55.6858 70.1195 54.7779 70.0256C53.6429 69.8378 52.7349 69.8378 51.9405 70.0256C50.5785 70.4011 49.784 70.9644 49.6705 71.5278Z" fill="#DD0B2B"/>
<path d="M51.4682 65.5662C50.3245 65.4457 49.1809 65.3653 48.7521 65.3402C48.2946 65.3099 47.8467 65.4782 47.6799 65.5662C48.0373 66.0431 49.6813 67.0121 53.398 67.0723C57.1148 67.1326 58.4728 65.7921 58.6872 65.1143C58.5681 65.0641 58.044 65.039 56.9003 65.3402C55.4708 65.7168 52.8977 65.7168 51.4682 65.5662Z" fill="white"/>
<path d="M39.4829 61.4537C41.4231 61.4537 42.9959 59.8809 42.9959 57.9407C42.9959 56.0005 41.4231 54.4277 39.4829 54.4277C37.5428 54.4277 35.97 56.0005 35.97 57.9407C35.97 59.8809 37.5428 61.4537 39.4829 61.4537Z" fill="#252C36"/>
<path d="M68.5236 61.4537C70.4638 61.4537 72.0366 59.8809 72.0366 57.9407C72.0366 56.0005 70.4638 54.4277 68.5236 54.4277C66.5834 54.4277 65.0106 56.0005 65.0106 57.9407C65.0106 59.8809 66.5834 61.4537 68.5236 61.4537Z" fill="#252C36"/>
<path d="M38.2535 58.2921C38.9325 58.2921 39.483 57.7416 39.483 57.0625C39.483 56.3835 38.9325 55.833 38.2535 55.833C37.5744 55.833 37.0239 56.3835 37.0239 57.0625C37.0239 57.7416 37.5744 58.2921 38.2535 58.2921Z" fill="white"/>
<path d="M67.294 58.2921C67.973 58.2921 68.5235 57.7416 68.5235 57.0625C68.5235 56.3835 67.973 55.833 67.294 55.833C66.6149 55.833 66.0645 56.3835 66.0645 57.0625C66.0645 57.7416 66.6149 58.2921 67.294 58.2921Z" fill="white"/>
<defs>
<filter id="filter0_f_201_108" x="0.900635" y="80.0369" width="101.922" height="49.2639" filterUnits="userSpaceOnUse" color-interpolation-filters="sRGB">
<feFlood flood-opacity="0" result="BackgroundImageFix"/>
<feBlend mode="normal" in="SourceGraphic" in2="BackgroundImageFix" result="shape"/>
<feGaussianBlur stdDeviation="10" result="effect1_foregroundBlur_201_108"/>
</filter>
</defs>
</svg>
