<svg width="51" height="43" viewBox="0 0 51 43" fill="none" xmlns="http://www.w3.org/2000/svg">
<path fill-rule="evenodd" clip-rule="evenodd" d="M29.9073 0.153802C26.2679 0.810879 23.0116 3.13708 21.2629 6.32896C21.0487 6.71994 20.865 7.03974 20.8544 7.03974C20.844 7.03974 20.3683 6.92128 19.7975 6.77649C17.8901 6.29263 15.6428 6.4529 13.9087 7.19633C12.6904 7.71862 12.0076 8.1612 11.0766 9.03214C9.44131 10.562 8.57354 12.158 8.15534 14.4048L7.98989 15.2939L7.30652 15.4239C3.77403 16.0959 1.01705 18.7886 0.183296 22.3809C-0.0807221 23.5185 -0.0563949 25.4377 0.236058 26.5413C1.1112 29.8436 3.6129 32.3262 6.91518 33.1693C7.68186 33.3651 8.17819 33.3965 11.2305 33.4419L14.6794 33.4933V37.5928C14.6794 41.4627 14.691 41.7149 14.8868 42.0985C15.0009 42.3221 15.2733 42.6163 15.4924 42.7524L15.8905 43H25.5266H35.1627L35.5609 42.7524C35.7799 42.6163 36.0524 42.3221 36.1664 42.0985C36.3622 41.7148 36.3738 41.4627 36.3738 37.5812V33.4703H39.1936C42.2389 33.4703 43.3886 33.3769 44.5318 33.0368C46.9823 32.308 49.2021 30.3642 50.2249 28.0518C50.9721 26.3624 51.1953 24.2948 50.8236 22.5053C50.179 19.4021 47.949 16.8294 44.9808 15.7648C44.2658 15.5083 44.0682 15.3952 44.1066 15.2643C44.4664 14.034 44.5261 11.4125 44.2265 9.98817C43.1446 4.84327 39.2208 1.02117 34.1221 0.145273C32.9752 -0.0517453 31.0238 -0.0478494 29.9073 0.153802ZM33.6622 1.50955C36.1576 1.88558 38.2432 2.98071 40.0071 4.84106C41.2987 6.20323 42.1641 7.76484 42.6553 9.61961C42.8947 10.524 42.9353 10.8955 42.9421 12.2521C42.9493 13.6575 42.9175 13.9582 42.6538 14.9796C42.2988 16.3549 42.3418 16.5539 43.0302 16.7217C45.3388 17.2845 46.825 18.1607 47.9153 19.6017C49.0892 21.1534 49.5913 22.7525 49.5088 24.6776C49.3783 27.7256 47.5547 30.2778 44.6765 31.4402C43.5422 31.8983 42.6829 31.9884 39.4093 31.9924L36.3894 31.9961L36.3553 30.4765C36.3251 29.1375 36.2953 28.9224 36.104 28.6665C35.6284 28.0305 35.4034 27.9448 34.1093 27.9068L32.9125 27.8715L32.8773 24.7478L32.8422 21.6239L32.5352 20.7393C31.892 18.8859 30.4922 17.3031 28.766 16.4772C27.5077 15.8751 26.8815 15.7309 25.5266 15.7309C24.1682 15.7309 23.5483 15.8745 22.2619 16.487C21.3959 16.8995 21.1337 17.0925 20.3106 17.9248C19.2344 19.0128 18.7267 19.8952 18.3662 21.3046C18.1798 22.0333 18.1548 22.4722 18.1548 25.0013V27.8712L16.951 27.9066C15.6492 27.9448 15.4254 28.0298 14.9493 28.6665C14.7579 28.9224 14.7281 29.1375 14.698 30.4765L14.6639 31.9961L11.5386 31.9924C8.15355 31.9884 7.30842 31.9015 6.1661 31.4402C5.12034 31.0178 4.36736 30.5227 3.56519 29.7299C2.14874 28.3299 1.41945 26.6788 1.33383 24.6776C1.25127 22.7495 1.75319 21.1537 2.93279 19.5946C4.08502 18.0714 6.52953 16.7295 8.15682 16.7268C8.76184 16.7258 9.3103 16.5264 9.4035 16.2736C9.45026 16.1467 9.51756 15.6533 9.55305 15.1769C9.70185 13.1764 10.7961 11.1025 12.4058 9.76967C13.1771 9.13112 14.6717 8.3878 15.6722 8.14519C17.0973 7.79959 19.1971 7.96271 20.4486 8.51617C21.3892 8.93221 21.6314 8.81943 22.1436 7.72662C22.7048 6.52914 23.3089 5.66515 24.2954 4.64847C26.7432 2.12619 30.159 0.981573 33.6622 1.50955ZM26.8174 17.3031C28.4044 17.6393 30.0662 18.9045 30.764 20.3077C31.3646 21.5155 31.4241 21.9442 31.4241 25.0683V27.8893H25.5266H19.6291V25.0683C19.6291 22.8918 19.6657 22.104 19.789 21.6197C20.2176 19.937 21.3531 18.5443 22.9073 17.7951C24.2368 17.1542 25.4152 17.0059 26.8174 17.3031ZM34.8468 35.471V41.5258H25.5266H16.2065L16.1793 35.4441L16.1521 29.3624L25.4995 29.3893L34.8468 29.4162V35.471ZM24.8128 32.1508C23.4562 32.5744 22.7251 34.1543 23.301 35.4183C23.5065 35.8698 24.203 36.5626 24.5671 36.6783C24.7681 36.7421 24.7894 36.8271 24.7894 37.5643C24.7894 38.5027 24.9846 38.8406 25.5266 38.8406C26.0675 38.8406 26.2638 38.5023 26.2638 37.57C26.2638 36.7766 26.27 36.7576 26.5677 36.6342C26.7349 36.5651 27.0264 36.3579 27.2155 36.174C27.9815 35.4291 28.1584 34.3533 27.6747 33.3827C27.3551 32.7416 26.8929 32.3539 26.1991 32.1452C25.6041 31.966 25.4018 31.9669 24.8128 32.1508ZM26.2375 33.8446C26.5378 34.1858 26.5458 34.72 26.2561 35.0882C26.0739 35.3199 25.9536 35.3657 25.5266 35.3657C25.0997 35.3657 24.9793 35.3199 24.7971 35.0882C24.4072 34.5926 24.5867 33.805 25.143 33.5707C25.4894 33.4248 25.9749 33.5463 26.2375 33.8446Z" fill="#00BDD7"/>
</svg>
