<svg width="42" height="48" viewBox="0 0 42 48" fill="none" xmlns="http://www.w3.org/2000/svg">
<path fill-rule="evenodd" clip-rule="evenodd" d="M20.5753 0.252271C19.5004 0.954733 17.1221 2.32629 15.9978 2.89217C14.3432 3.72493 13.2107 4.1668 11.8568 4.50772C9.80393 5.02478 9.14826 5.08036 4.38876 5.14101L0 5.19688L0.0288809 7.8215C0.122885 16.347 1.46556 23.1568 4.34988 29.7358C6.34634 34.2897 8.94308 38.084 12.4526 41.5754C14.804 43.9147 17.0879 45.6829 19.9382 47.3711L21 48L22.0618 47.3711C24.9121 45.6829 27.1688 43.9348 29.5474 41.5725C33.0509 38.093 35.6522 34.2928 37.6501 29.7358C40.5344 23.1568 41.8771 16.347 41.9711 7.8215L42 5.19688L37.6112 5.14101C32.8517 5.08036 32.1961 5.02478 30.1432 4.50772C27.903 3.94352 25.7233 2.90136 22.0121 0.619812C21.4527 0.275892 20.9855 -0.00306783 20.9739 2.54794e-05C20.9623 0.00302505 20.7829 0.11654 20.5753 0.252271ZM22.6739 2.77697C25.56 4.50069 27.9253 5.54979 30.0594 6.0525C32.0118 6.51247 32.7201 6.5734 36.691 6.62336L40.4427 6.67041L40.442 8.5114C40.4406 12.5169 39.882 17.1661 38.9199 21.179C37.42 27.4358 34.7143 33.1021 31.0421 37.6766C29.885 39.118 27.1444 41.8764 25.8135 42.939C24.1839 44.24 21.287 46.2066 21 46.2066C20.713 46.2066 17.8161 44.24 16.1865 42.939C14.8556 41.8764 12.115 39.118 10.9579 37.6766C7.28573 33.1021 4.57998 27.4358 3.08006 21.179C2.11803 17.1661 1.55938 12.5169 1.55796 8.5114L1.5573 6.67041L5.30899 6.62336C9.27992 6.5734 9.98817 6.51247 11.9406 6.0525C12.4849 5.92427 13.3126 5.6873 13.7798 5.5258C15.0112 5.10033 17.7998 3.71003 19.4899 2.67902C20.2945 2.18812 20.9628 1.78402 20.975 1.78102C20.9872 1.77802 21.7517 2.22618 22.6739 2.77697ZM19.8202 8.28371C18.3607 8.57017 17.26 9.14562 16.2245 10.1635C15.3986 10.9753 14.9128 11.738 14.5036 12.8655C14.2604 13.5353 14.2587 13.5601 14.2253 16.8905L14.1917 20.2416H12.6408H11.0899V28.0217V35.8019H21H30.9101V28.0217V20.2416H29.3592H27.8083L27.7747 16.8905C27.7413 13.5601 27.7396 13.5353 27.4964 12.8655C27.0871 11.7378 26.6013 10.9755 25.7685 10.1537C24.5506 8.95206 23.0336 8.29018 21.2831 8.19682C20.8009 8.17114 20.2173 8.20573 19.8202 8.28371ZM22.3751 9.87321C23.6689 10.2125 25.0686 11.3268 25.6964 12.517C26.2287 13.5265 26.2825 13.9609 26.284 17.2655L26.2854 20.2416H21H15.7146L15.716 17.2655C15.7171 14.9425 15.7487 14.1575 15.86 13.6888C16.2889 11.8813 17.9971 10.2051 19.773 9.84902C20.0585 9.79175 20.3771 9.72613 20.4809 9.70307C20.7696 9.63914 21.854 9.73654 22.3751 9.87321ZM17.48 15.2387C17.4434 15.2751 17.4135 15.6141 17.4135 15.9922V16.6796H18.2197H19.0259L18.9983 15.9531L18.9708 15.2267L18.2587 15.1997C17.867 15.1848 17.5166 15.2024 17.48 15.2387ZM20.5281 15.9297V16.6796H21.2831H22.0382V15.9297V15.1798H21.2831H20.5281V15.9297ZM23.5483 15.9297V16.6796H24.3034H25.0584V15.9297V15.1798H24.3034H23.5483V15.9297ZM29.3056 28.0217V34.3021H21H12.6944V28.0217V21.7414H21H29.3056V28.0217ZM20.0535 22.8995C19.5314 23.0678 18.8839 23.4826 18.5449 23.866C17.7117 24.8085 17.5014 26.1962 18.0189 27.3346C18.1636 27.6528 18.3838 28.0081 18.5084 28.1244L18.7348 28.3357V30.5689V32.8023H21H23.2652V30.5689V28.3357L23.4916 28.1244C23.6162 28.0081 23.8364 27.6528 23.9811 27.3346C24.4881 26.2195 24.2934 24.8434 23.4959 23.9067C23.1611 23.5135 22.4037 23.0323 21.8857 22.8838C21.4091 22.7473 20.5018 22.755 20.0535 22.8995ZM21.6888 24.3989C22.1038 24.5711 22.5745 25.1257 22.7007 25.5912C22.8734 26.2283 22.6755 26.8049 22.0934 27.3605L21.7551 27.6835V29.493V31.3025H21H20.2449V29.493V27.6835L19.9066 27.3605C19.3245 26.8049 19.1266 26.2283 19.2993 25.5912C19.4224 25.1372 19.8905 24.576 20.2903 24.4029C20.6628 24.2418 21.3057 24.2399 21.6888 24.3989Z" fill="#00BDD7"/>
</svg>
