<svg width="47" height="51" viewBox="0 0 47 51" fill="none" xmlns="http://www.w3.org/2000/svg">
<path fill-rule="evenodd" clip-rule="evenodd" d="M19.5606 0.233905C18.9854 0.509052 18.8094 0.692151 18.541 1.29484C18.1837 2.09688 18.3518 2.9799 18.9841 3.62313C19.3991 4.04522 19.848 4.20172 20.8078 4.2585L21.6638 4.30921V4.77981V5.25041L21.1013 5.31576C19.7475 5.47306 18.883 5.70517 18.6068 5.98559C18.2531 6.34462 18.2587 6.70683 18.6237 7.07861C18.9629 7.42389 18.989 7.42538 20.2453 7.17106C20.7834 7.06217 21.6968 6.94343 22.2752 6.90717L23.3268 6.84122L23.3282 7.72813C23.3298 8.72073 23.4421 9.04728 23.8504 9.24661C24.1819 9.40849 24.5252 9.33428 24.7914 9.04329C24.9628 8.85611 24.9898 8.69323 24.9898 7.84906V6.8717L25.5033 6.8723C27.2277 6.87429 30.2954 7.65112 32.5222 8.6498C33.8508 9.24572 33.7821 9.16722 33.4673 9.72927C32.898 10.7461 32.7873 11.0268 32.8521 11.2897C32.9904 11.8508 33.6854 12.1434 34.1062 11.8178C34.1973 11.7472 34.4633 11.3595 34.6972 10.9562C34.9311 10.5528 35.1647 10.2094 35.2163 10.1931C35.3557 10.149 36.9093 11.311 37.9134 12.2105C38.3969 12.6438 39.1485 13.4087 39.5833 13.9102C40.3258 14.7665 41.6134 16.5021 41.6178 16.6526C41.6188 16.6899 41.2502 16.9478 40.7986 17.2257C40.3469 17.5035 39.9508 17.8016 39.9182 17.888C39.6991 18.4694 40.1252 19.1267 40.7194 19.1241C40.8111 19.1236 41.2322 18.9219 41.6554 18.6758C42.0786 18.4297 42.4575 18.2282 42.4975 18.2282C42.6122 18.2282 43.353 19.9417 43.7631 21.156C44.3728 22.9608 44.8415 25.348 44.8461 26.6709L44.8479 27.1939H43.924C43.1053 27.1939 42.9717 27.2194 42.7501 27.4181C42.6124 27.5414 42.4728 27.7861 42.4397 27.962C42.3893 28.2294 42.4281 28.3314 42.6768 28.5846C42.9667 28.8798 42.9978 28.8875 43.911 28.8875H44.8479L44.8473 29.4603C44.846 30.7565 44.2731 33.5751 43.6672 35.2662C43.2649 36.3888 42.5921 37.8531 42.4785 37.8531C42.4285 37.8531 42.0849 37.6731 41.715 37.4532C40.7709 36.8916 40.5278 36.8578 40.1563 37.2361C39.8489 37.5491 39.777 37.9096 39.9545 38.2473C40.0071 38.3475 40.4033 38.6401 40.8349 38.8978C41.2666 39.1556 41.6197 39.4022 41.6197 39.446C41.6197 39.5773 40.5674 41.0337 39.8444 41.903C38.7577 43.2097 37.2208 44.6065 35.7519 45.6223L35.1916 46.0098L34.7735 45.2658C34.3148 44.4493 33.9917 44.1291 33.6264 44.1291C33.327 44.1291 32.8156 44.6364 32.8156 44.9333C32.8156 45.0552 33.0178 45.5327 33.2649 45.9943C33.512 46.4559 33.6962 46.8519 33.6742 46.8742C33.6523 46.8965 33.197 47.1232 32.6625 47.3777C30.738 48.2944 28.1417 49.0025 26.0373 49.1848C25.5105 49.2304 25.0592 49.2472 25.0346 49.2221C25.0099 49.197 24.9898 48.7435 24.9898 48.2143C24.9898 47.3426 24.969 47.233 24.7697 47.0502C24.4429 46.7508 24.2323 46.7059 23.8725 46.8589C23.4529 47.0375 23.3268 47.4103 23.3268 48.4727V49.2999L22.8132 49.2485C21.166 49.0838 20.4642 48.9899 19.8359 48.8505C19.2413 48.7185 19.0913 48.715 18.8613 48.8275C18.3118 49.0966 18.1948 49.7614 18.6207 50.1951C18.9595 50.5402 21.952 50.9953 23.9137 50.9999C34.686 51.0257 43.9429 43.3471 46.1179 32.5816C46.7601 29.4029 46.7074 26.0727 45.9616 22.7111C45.2774 19.6273 43.4447 15.9087 41.4013 13.4586C41.0641 13.0542 40.7447 12.6624 40.6915 12.5878C40.6186 12.4856 40.8105 12.2315 41.4716 11.5552L42.3485 10.658L42.8918 11.2055C43.1907 11.5067 43.4784 11.753 43.5312 11.753C43.6577 11.753 47 8.34357 47 8.21447C47 8.08436 43.6531 4.68009 43.5252 4.68009C43.396 4.68009 40.0545 8.08914 40.0545 8.22104C40.0545 8.27713 40.297 8.56682 40.5933 8.86478L41.132 9.4066L40.2774 10.281C39.8073 10.7618 39.3751 11.1553 39.3168 11.1553C39.2585 11.1553 39.0814 11.0176 38.9234 10.8493C38.7654 10.6809 38.227 10.2286 37.7271 9.84393C34.6977 7.51345 31.2997 6.01628 27.6739 5.41468L26.6528 5.24523V4.77702V4.30881L27.5576 4.2604C29.1779 4.17373 29.9787 3.45896 29.9787 2.09966C29.9787 1.47854 29.8798 1.21296 29.4726 0.740566C28.8307 -0.00388514 28.8767 0.00249047 24.2072 0.00119543L20.0497 0L19.5606 0.233905ZM28.1984 1.81107C28.3781 1.99407 28.3381 2.36973 28.1266 2.48499C28.0201 2.54297 27.2924 2.5881 26.4636 2.5881H24.9898V3.83333V5.07857H24.1583H23.3268V3.83333V2.5881H21.8812C20.7311 2.5881 20.3912 2.55642 20.2182 2.43299C19.9622 2.25039 19.942 2.0645 20.1545 1.84803C20.2891 1.71105 20.792 1.69153 24.1946 1.69153C27.0869 1.69153 28.111 1.72211 28.1984 1.81107ZM44.1356 7.59055C44.4197 7.87636 44.6522 8.15509 44.6522 8.20998C44.6522 8.34098 43.6608 9.36217 43.5337 9.36217C43.4051 9.36217 42.4023 8.35254 42.4023 8.22313C42.4023 8.09213 43.3937 7.07094 43.5208 7.07094C43.5748 7.07094 43.8515 7.30475 44.1356 7.59055ZM12.2991 11.9194C12.0031 11.982 11.6858 12.4155 11.6858 12.7571C11.6858 12.911 11.792 13.1627 11.9218 13.3164L12.158 13.596H14.5552H16.9525L17.2049 13.3545C17.5526 13.0218 17.5527 12.4768 17.2051 12.1439C16.9546 11.904 16.9386 11.9024 14.735 11.8878C13.5153 11.8798 12.4191 11.894 12.2991 11.9194ZM7.96851 17.9587C7.45122 18.2252 7.36239 18.9132 7.79252 19.3213C7.99991 19.5181 8.12033 19.5233 12.4737 19.5233C16.8459 19.5233 16.9474 19.5188 17.1996 19.3168C17.3902 19.1642 17.4574 19.0196 17.4574 18.7624C17.4574 18.2897 17.3236 18.0704 16.9557 17.9398C16.4872 17.7735 8.29465 17.7906 7.96851 17.9587ZM32.8001 19.5382C26.2968 24.2974 22.5911 27.0812 22.3546 27.3854C21.3993 28.6136 21.5214 30.3585 22.6397 31.4638C23.7273 32.5386 25.6371 32.5259 26.6926 31.4369C27.1369 30.9785 34.6119 20.4868 34.8902 19.9312C35.085 19.5419 35.0471 19.288 34.7438 18.9505C34.3718 18.5366 34.0258 18.6412 32.8001 19.5382ZM28.0207 26.8071C26.7249 28.6362 25.5251 30.2335 25.3545 30.3568C24.7187 30.8161 23.8712 30.5677 23.5147 29.8176C23.2909 29.3467 23.3237 28.8893 23.609 28.5042C23.7655 28.2928 30.2848 23.4152 30.3489 23.4615C30.3642 23.4726 29.3165 24.9781 28.0207 26.8071ZM3.69617 23.9547C3.22965 24.2876 3.26193 25.1282 3.75154 25.395C3.89329 25.4723 5.88507 25.4966 10.518 25.4776L17.0834 25.4506L17.2704 25.2154C17.537 24.8801 17.5129 24.3525 17.2172 24.0515L16.9771 23.8069H10.4403C4.81869 23.8069 3.87441 23.8276 3.69617 23.9547ZM0.272064 30.0082C-0.0219928 30.3409 -0.0661111 30.5554 0.0841455 30.9218C0.175512 31.1444 0.322736 31.2881 0.538045 31.3645C0.982065 31.5221 16.5122 31.5249 16.9557 31.3675C17.3236 31.2369 17.4574 31.0176 17.4574 30.5449C17.4574 30.2877 17.3902 30.1431 17.1996 29.9905C16.9435 29.7853 16.8899 29.784 8.706 29.784H0.470254L0.272064 30.0082ZM5.66966 35.7313C5.05249 35.8883 4.81312 36.7107 5.26017 37.1385L5.48663 37.355H11.2593H17.0319L17.2447 37.1245C17.5478 36.7959 17.5298 36.2636 17.205 35.9528L16.9526 35.7113L11.409 35.6964C8.35999 35.6882 5.77727 35.7039 5.66966 35.7313ZM10.463 41.759C9.96136 42.0519 9.86628 42.6838 10.263 43.0876L10.503 43.3322H13.7225C16.8313 43.3322 16.9507 43.3251 17.1996 43.1257C17.3863 42.9761 17.4574 42.8273 17.4574 42.5859C17.4574 41.6557 17.3874 41.6381 13.7205 41.6416C11.6017 41.6437 10.5984 41.6799 10.463 41.759Z" fill="#00BDD7"/>
</svg>
