<svg width="42" height="32" viewBox="0 0 42 32" fill="none" xmlns="http://www.w3.org/2000/svg">
<path fill-rule="evenodd" clip-rule="evenodd" d="M1.60408 0.18658C1.04333 0.40589 0.493007 0.924234 0.209812 1.49981L0 1.92619V15.9507C0 27.3063 0.0234901 30.0418 0.123651 30.325C0.32604 30.8973 1.01251 31.5834 1.60483 31.8054C2.11954 31.9984 2.17987 31.999 20.9868 31.999C42.0344 31.999 40.3206 32.0557 41.1413 31.332C41.3723 31.1282 41.6601 30.7608 41.7807 30.5155L42 30.0694V16.0449C42 4.68931 41.9765 1.95377 41.8764 1.67064C41.674 1.09827 40.9875 0.412197 40.3952 0.190157C39.8803 -0.00279815 39.8259 -0.00336316 20.9729 0.00106069C2.54405 0.00529629 2.05546 0.0100026 1.60408 0.18658ZM40.2193 1.59675C40.6839 2.02624 40.7315 2.27963 40.7315 4.32335V6.20885H21H1.26846V4.33248C1.26846 3.23179 1.30989 2.34655 1.36871 2.19115C1.48936 1.87207 1.80966 1.51101 2.06711 1.4038C2.17047 1.36078 10.7397 1.33368 21.1098 1.34356L39.9647 1.36144L40.2193 1.59675ZM3.48919 3.29786C3.18627 3.53647 3.15911 3.96135 3.42953 4.23224C3.60054 4.40354 3.7427 4.42049 5.0105 4.42049C6.3451 4.42049 6.41209 4.41136 6.60781 4.20268C6.87541 3.9172 6.86639 3.61921 6.58141 3.33382C6.35872 3.11065 6.3062 3.10274 5.04376 3.10274C3.86381 3.10274 3.71273 3.12166 3.48919 3.29786ZM9.50262 3.29786C9.19969 3.53647 9.17254 3.96135 9.44295 4.23224C9.61405 4.40364 9.75612 4.42049 11.0334 4.42049H12.436L12.6361 4.16569C12.87 3.86769 12.8289 3.5215 12.5292 3.26746C12.3647 3.12797 12.1367 3.10274 11.0425 3.10274C9.87733 3.10274 9.72577 3.12195 9.50262 3.29786ZM15.0293 3.33382C14.7485 3.61506 14.7341 3.93914 14.9902 4.21445L15.1818 4.42049H21.9902C28.6734 4.42049 28.8021 4.417 28.9866 4.23224C29.257 3.96135 29.2298 3.53647 28.9269 3.29786C28.6817 3.10463 28.6154 3.10274 21.9697 3.10274H15.2599L15.0293 3.33382ZM40.712 18.4921C40.7301 25.7137 40.707 29.5234 40.6436 29.7439C40.591 29.9272 40.4172 30.2025 40.2577 30.3557L39.9676 30.6342H21.0014H2.03526L1.78072 30.3988C1.24346 29.9022 1.26846 30.478 1.26846 18.605C1.26846 12.5809 1.29674 7.62373 1.33132 7.58909C1.36589 7.55446 10.2345 7.53685 21.0394 7.54994L40.6846 7.57366L40.712 18.4921ZM19.9451 10.5908C18.6894 10.8958 17.5617 11.7917 17.0068 12.9251C16.5706 13.8165 16.4899 14.3194 16.4899 16.1518V17.692H15.9685C15.1892 17.692 14.6469 18.0091 14.3162 18.6583C14.1444 18.9954 14.1369 19.2294 14.1618 23.4265L14.1879 27.8402L14.4798 28.2018C14.6402 28.4007 14.9151 28.6481 15.0905 28.7517C15.3997 28.9343 15.5783 28.9399 21 28.9399C26.4217 28.9399 26.6003 28.9343 26.9095 28.7517C27.0849 28.6481 27.3598 28.4007 27.5202 28.2018L27.8121 27.8402L27.8382 23.4265C27.8631 19.2294 27.8556 18.9954 27.6838 18.6583C27.3531 18.0091 26.8108 17.692 26.0315 17.692H25.5101V16.1518C25.5101 15.3048 25.4669 14.3837 25.4141 14.1051C24.9455 11.6294 22.401 9.99444 19.9451 10.5908ZM22.2555 12.0478C22.5669 12.1645 22.9491 12.4092 23.1969 12.6504C24.0137 13.4456 24.192 14.0741 24.1935 16.1625L24.1946 17.692H21H17.8054L17.8065 16.1625C17.808 14.115 17.9842 13.4656 18.745 12.7034C19.6375 11.8094 20.9603 11.5623 22.2555 12.0478ZM26.4309 19.1227C26.5151 19.2071 26.5436 20.2657 26.5436 23.3059V27.3762L26.3348 27.5227C26.152 27.651 25.4873 27.6692 21 27.6692C16.5127 27.6692 15.848 27.651 15.6652 27.5227L15.4564 27.3762V23.3059C15.4564 20.2657 15.4849 19.2071 15.5691 19.1227C15.7319 18.9597 26.2681 18.9597 26.4309 19.1227Z" fill="#00BDD7"/>
</svg>
