<svg width="49" height="50" viewBox="0 0 49 50" fill="none" xmlns="http://www.w3.org/2000/svg">
<path fill-rule="evenodd" clip-rule="evenodd" d="M22.7393 0.0314831C22.551 0.0537146 21.9786 0.120509 21.4675 0.180025C17.377 0.655957 13.1396 2.41204 9.65046 5.07702C8.43333 6.00665 6.40487 8.01586 5.39279 9.29431C2.58676 12.8388 0.772648 17.1817 0.124996 21.9054C-0.0425909 23.1276 -0.0414169 26.8389 0.127051 28.0864C0.764527 32.8094 2.61738 37.217 5.47057 40.798C6.43598 42.0097 8.48136 44.0219 9.68255 44.9418C15.4673 49.3716 22.7075 50.9797 29.8321 49.4171C31.4866 49.0542 33.6346 48.2765 35.3108 47.4336C38.0203 46.0709 39.9759 44.6176 42.1115 42.3794C45.8669 38.4437 48.0828 33.7469 48.8783 28.0365C49.0406 26.8717 49.0406 23.1201 48.8783 21.9553C48.4655 18.9922 47.7103 16.4389 46.5193 13.9799C45.1847 11.2243 43.7679 9.24407 41.5582 7.04605C39.5572 5.05559 37.7342 3.74852 35.2519 2.52449C32.8508 1.34055 30.5295 0.602123 28.0222 0.224488C26.9599 0.0644813 23.5247 -0.0610315 22.7393 0.0314831ZM27.8755 1.41771C30.3883 1.81837 32.5212 2.50645 34.8216 3.6588C36.1604 4.32943 37.808 5.34759 38.6812 6.04374L38.921 6.23495L38.6583 6.61817C38.5138 6.82892 38.1265 7.31542 37.7975 7.69923C35.7954 10.0351 33.3023 14.0371 33.3073 14.9068C33.3117 15.6667 33.8777 16.4577 34.654 16.7892C34.8308 16.8648 35.3312 16.9898 35.7659 17.0671C36.812 17.2532 37.4874 17.6038 38.0862 18.2714C38.7455 19.0065 39.0129 19.7228 39.0151 20.759C39.0165 21.4144 38.9702 21.6602 38.7551 22.1385C38.4006 22.9266 38.3047 23.0313 36.1842 24.9479C32.8241 27.9851 32.8975 27.8861 32.8345 29.4625C32.7785 30.8653 32.8935 31.149 33.8905 32.0664C34.8539 32.9528 35.1259 33.4763 35.2684 34.7188C35.3248 35.2107 35.415 35.756 35.4687 35.9306C35.5979 36.3509 36.2411 36.9314 36.6678 37.013C36.8556 37.0489 37.7948 37.0627 38.755 37.0435C40.4955 37.0089 40.5024 37.0079 41.1444 36.6857C41.9461 36.2834 42.5677 35.6209 43.0395 34.6661C43.7429 33.2426 44.7331 32.4904 46.0272 32.396C46.4017 32.3686 46.7083 32.3806 46.7083 32.4225C46.7083 32.5671 46.2374 33.8222 45.8308 34.7612C44.6739 37.4331 42.9815 39.865 40.7279 42.094C38.7897 44.0111 37.0539 45.2472 34.6259 46.4395C31.2779 48.0837 28.3116 48.7648 24.5003 48.7648C20.587 48.7648 17.5115 48.0317 14.0427 46.2722C11.5676 45.0167 9.7301 43.6384 7.71866 41.5285C5.84517 39.5633 4.6384 37.8046 3.45463 35.3141C1.95525 32.1598 1.26426 29.2148 1.14979 25.491C1.0773 23.1306 1.06937 23.1497 2.09251 23.2242C3.26787 23.31 4.05689 23.7972 4.77811 24.8827C5.38046 25.7893 7.43827 27.7367 8.11332 28.039C8.38236 28.1595 8.80118 28.3312 9.0439 28.4206C9.61299 28.6302 10.155 29.089 10.454 29.614C10.5844 29.843 10.9554 30.9793 11.2783 32.1392C11.609 33.327 11.9722 34.4202 12.1099 34.6425C12.2443 34.8596 12.9896 35.8845 13.766 36.9202C14.5424 37.9559 15.2708 38.9897 15.3847 39.2174C15.523 39.4938 15.7242 40.4398 15.989 42.0587C16.2075 43.3936 16.4317 44.6301 16.4875 44.8065C16.8205 45.8602 18.2966 45.9187 18.9129 44.9026C19.0199 44.7261 19.1735 44.2588 19.2543 43.8639C19.4634 42.842 19.6777 42.412 20.4841 41.3953C21.2928 40.3759 21.2246 40.5223 21.8722 38.4174C22.1399 37.5472 22.4305 36.7172 22.518 36.5731C22.8186 36.0777 23.1829 35.7363 24.6352 34.5878C25.8271 33.6453 26.1249 33.3585 26.2784 33.0049C26.5852 32.2982 26.4731 32.0167 25.3362 30.639C24.7886 29.9752 23.9413 28.8714 23.4536 28.186C22.2224 26.4563 21.4943 25.9147 20.0809 25.6776C19.4726 25.5756 19.1937 25.4524 18.239 24.8635C15.7284 23.3152 15.2272 23.2716 13.0982 24.4168C12.2654 24.8647 12.0466 24.9406 11.5864 24.9408C10.5326 24.9412 9.969 24.3823 8.6376 22.017C8.27317 21.3698 8.22357 21.2079 8.22514 20.6711C8.22798 19.6328 8.89216 18.7227 9.90316 18.3717C10.4651 18.1766 10.8002 18.1776 12.2345 18.3786C14.0077 18.6269 14.5297 18.4396 15.4465 17.2256C15.7613 16.8086 16.0419 16.5618 16.4049 16.3823C16.9872 16.0942 17.3829 16.0514 18.4465 16.1608C19.778 16.2978 20.2984 16.0268 21.2987 14.6757C22.2352 13.4106 22.4595 12.4755 22.0921 11.3664C21.8856 10.743 20.0277 7.99313 19.2258 7.12421C18.8809 6.75026 18.2205 6.19128 17.7583 5.88194C17.2963 5.57269 16.3725 4.90206 15.7056 4.39183L14.4931 3.4641L15.231 3.12135C16.9615 2.31783 19.9511 1.51999 22.1523 1.27435C23.3098 1.14525 26.6985 1.23009 27.8755 1.41771ZM14.8148 5.20921C15.5413 5.7654 16.5175 6.4766 16.9843 6.78964C18.0579 7.50962 18.732 8.24814 19.9115 9.99635C21.386 12.1819 21.4227 12.5293 20.3349 14.0026C19.6134 14.9798 19.4178 15.0727 18.348 14.9458C16.542 14.7316 15.4701 15.2152 14.2536 16.7928C14.0625 17.0405 13.8232 17.2289 13.6505 17.2675C13.493 17.3028 12.8215 17.2562 12.1583 17.1638C10.1671 16.8869 9.17725 17.1094 8.18219 18.0579C7.02014 19.1655 6.69876 20.8446 7.38603 22.2174C7.82813 23.1005 9.22724 25.1765 9.54871 25.4264C10.1886 25.9236 10.7876 26.1267 11.6189 26.128C12.3667 26.1292 12.4138 26.1142 13.5866 25.505C14.2474 25.1618 14.9637 24.8569 15.1784 24.8275C15.6741 24.7598 16.0868 24.943 17.792 25.9887C18.7486 26.5752 19.1892 26.7903 19.4341 26.7903C19.935 26.7903 20.7733 27.0734 21.2383 27.3994C21.4894 27.5753 21.9881 28.1646 22.513 28.9051C22.9872 29.5743 23.8041 30.6396 24.3283 31.2724C24.8525 31.9052 25.2817 32.4537 25.2821 32.4912C25.2825 32.5288 24.6336 33.0714 23.8399 33.6969C21.6205 35.4464 21.5006 35.6194 20.6982 38.23C20.2095 39.8196 20.1873 39.8661 19.5093 40.7202C18.7596 41.6646 18.4087 42.3135 18.2277 43.0901C18.1637 43.3642 18.0718 43.7591 18.0234 43.9675C17.9463 44.2991 17.7219 44.5404 17.6032 44.4195C17.5811 44.3968 17.3812 43.2586 17.1592 41.8899C16.8494 39.9802 16.6923 39.2624 16.4836 38.8033C16.3341 38.4743 15.5416 37.3119 14.7226 36.2202C13.9035 35.1284 13.172 34.1398 13.097 34.023C13.0219 33.9063 12.6932 32.8532 12.3666 31.683C12.04 30.5127 11.682 29.3739 11.571 29.1523C11.1127 28.2367 10.2399 27.5691 8.80979 27.0402C8.17055 26.8037 6.3627 25.1074 5.68179 24.1052C4.77429 22.7693 3.57809 22.0852 2.11589 22.0657L1.30358 22.055L1.36766 21.5565C1.68719 19.0679 2.65504 16.0613 3.88705 13.7306C4.44107 12.6826 5.58434 10.9356 6.33364 9.99216C7.2202 8.876 9.30736 6.82274 10.4124 5.97974C11.6078 5.06785 13.2487 4.04889 13.3868 4.13273C13.4458 4.16852 14.0884 4.65303 14.8148 5.20921ZM41.1925 8.37216C43.764 11.0606 45.4332 13.8028 46.6038 17.2623C47.5183 19.9649 47.827 21.9175 47.8264 24.9959C47.826 27.2507 47.7751 27.802 47.3725 29.9141C47.139 31.1392 47.1057 31.1748 46.1883 31.1792C44.5097 31.1873 42.9879 32.1985 42.1208 33.8819C41.6304 34.8341 41.2514 35.2887 40.6916 35.5965C40.3415 35.789 40.1194 35.8151 38.5857 35.8447C36.5218 35.8846 36.5956 35.9263 36.4378 34.6321C36.2433 33.0375 35.8735 32.2976 34.723 31.2018L33.99 30.5037V29.6888C33.99 29.1538 34.0412 28.7731 34.1391 28.5801C34.2212 28.4185 35.2887 27.384 36.5116 26.2813C37.7344 25.1785 38.9063 24.068 39.1157 23.8136C40.6287 21.9754 40.5687 19.26 38.9757 17.4839C38.137 16.5488 37.3448 16.1309 35.9183 15.8711C35.4912 15.7934 35.029 15.6401 34.8669 15.5224C34.3732 15.1642 34.3936 14.9442 35.0259 13.8058C35.8032 12.4062 37.1615 10.3648 37.9943 9.34416C38.3747 8.8781 38.939 8.17178 39.2484 7.7746C39.5579 7.37733 39.8376 7.05213 39.8699 7.05183C39.9024 7.05153 40.4975 7.6457 41.1925 8.37216Z" fill="#00BDD7"/>
</svg>
