<svg width="1200" height="250" viewBox="0 0 1200 250" fill="none" xmlns="http://www.w3.org/2000/svg">
<rect width="1200" height="250" fill="url(#paint0_linear_201_87)"/>
<mask id="mask0_201_87" style="mask-type:alpha" maskUnits="userSpaceOnUse" x="0" y="0" width="1200" height="250">
<rect width="1200" height="250" fill="url(#paint1_linear_201_87)"/>
</mask>
<g mask="url(#mask0_201_87)">
<path opacity="0.17" d="M1271.08 119.674C1269.19 52.6097 1214.31 -2 1147.12 -2C1100.75 -2 1060.06 23.8677 1039.24 63.1484C1029.78 57.4 1018.43 54.5258 1007.07 54.5258C973.004 54.5258 944.616 81.3516 942.723 114.884C908.657 129.255 885 162.787 885 201.11C885 252.845 926.636 295 977.736 295H1255.94C1304.2 295 1343 255.719 1343 206.858C1343 163.745 1311.77 127.339 1271.08 119.674Z" fill="white"/>
<path opacity="0.17" d="M83.0969 151.482C123.973 204.683 200.457 216.71 254.867 177.295C292.418 150.094 310.195 105.274 304.01 61.2499C315.046 60.3538 325.928 56.0198 335.124 49.3581C362.712 29.3731 369.964 -9.00561 351.825 -37.2716C370.982 -68.8947 370.469 -109.929 347.987 -140.964C317.636 -182.861 259.187 -192.574 217.805 -162.596L-7.49724 0.614413C-46.5803 28.9265 -54.9559 83.4982 -26.2913 123.068C-0.998937 157.982 45.6481 169.146 83.0969 151.482Z" fill="white"/>
</g>
<defs>
<linearGradient id="paint0_linear_201_87" x1="600" y1="0" x2="600" y2="250" gradientUnits="userSpaceOnUse">
<stop stop-color="#0090F8"/>
<stop offset="1" stop-color="#0060AB"/>
</linearGradient>
<linearGradient id="paint1_linear_201_87" x1="600" y1="0" x2="600" y2="250" gradientUnits="userSpaceOnUse">
<stop stop-color="#0090F8"/>
<stop offset="1" stop-color="#0060AB"/>
</linearGradient>
</defs>
</svg>
