<svg width="52" height="19" viewBox="0 0 52 19" fill="none" xmlns="http://www.w3.org/2000/svg">
<path d="M0.000143229 16.1693C-0.00258553 15.9785 0.0337025 15.7892 0.10678 15.6129C0.179857 15.4366 0.288182 15.2772 0.425103 15.1443C0.562024 15.0114 0.724652 14.908 0.903004 14.8402C1.08136 14.7725 1.27167 14.7419 1.46226 14.7504C1.65168 14.7438 1.84036 14.7773 2.01595 14.8487C2.19154 14.9201 2.35007 15.0278 2.48118 15.1647L2.29479 15.3532C2.18745 15.2432 2.0583 15.1569 1.91564 15.0998C1.77297 15.0428 1.61995 15.0162 1.4664 15.0218C1.31066 15.0152 1.1552 15.0401 1.00937 15.0952C0.863544 15.1503 0.730359 15.2343 0.617831 15.3421C0.505302 15.45 0.415759 15.5796 0.354587 15.7229C0.293416 15.8663 0.261881 16.0206 0.261881 16.1765C0.261881 16.3324 0.293416 16.4867 0.354587 16.6301C0.415759 16.7735 0.505302 16.9031 0.617831 17.0109C0.730359 17.1188 0.863544 17.2028 1.00937 17.2579C1.1552 17.3129 1.31066 17.3379 1.4664 17.3313C1.62015 17.337 1.77338 17.3103 1.91611 17.2528C2.05884 17.1954 2.18787 17.1085 2.29479 16.9978L2.48118 17.1842C2.34936 17.3214 2.19011 17.4291 2.01383 17.5005C1.83754 17.5719 1.64818 17.6053 1.45811 17.5985C1.26865 17.6056 1.07973 17.574 0.902851 17.5057C0.725972 17.4374 0.564828 17.3339 0.429222 17.2013C0.293616 17.0688 0.186381 16.9101 0.114042 16.7348C0.0417018 16.5595 0.00576861 16.3713 0.00842734 16.1817" fill="white"/>
<path d="M2.94701 16.514C2.94701 16.303 3.00957 16.0968 3.12676 15.9214C3.24396 15.7459 3.41053 15.6092 3.60542 15.5285C3.8003 15.4477 4.01475 15.4266 4.22165 15.4678C4.42854 15.5089 4.61858 15.6105 4.76774 15.7597C4.9169 15.9089 5.01848 16.099 5.05963 16.3059C5.10079 16.5128 5.07967 16.7273 4.99894 16.9222C4.91822 17.1172 4.78151 17.2838 4.60612 17.401C4.43072 17.5182 4.22452 17.5808 4.01357 17.5808C3.87234 17.5851 3.73173 17.5604 3.60038 17.5083C3.46903 17.4562 3.34973 17.3778 3.24982 17.2779C3.14991 17.178 3.07151 17.0587 3.01943 16.9273C2.96735 16.7959 2.94271 16.6553 2.94701 16.514ZM4.79019 16.514C4.7845 16.3613 4.73398 16.2135 4.64494 16.0893C4.5559 15.965 4.43228 15.8698 4.28946 15.8153C4.14665 15.7608 3.99098 15.7496 3.84183 15.783C3.69269 15.8164 3.55667 15.893 3.45073 16.0032C3.3448 16.1134 3.27363 16.2523 3.24609 16.4027C3.21856 16.5531 3.23587 16.7082 3.29588 16.8488C3.35589 16.9894 3.45594 17.1092 3.58356 17.1933C3.71118 17.2774 3.86073 17.3221 4.01357 17.3218C4.11956 17.3241 4.22487 17.3043 4.32275 17.2635C4.42063 17.2228 4.50894 17.1621 4.58203 17.0853C4.65512 17.0085 4.71139 16.9173 4.74723 16.8175C4.78307 16.7177 4.7977 16.6115 4.79019 16.5057" fill="white"/>
<path d="M9.3112 16.3469V17.5627H9.02541V16.3759C9.02541 15.9326 8.80381 15.7068 8.42482 15.7068C7.99406 15.7068 7.72276 15.9844 7.72276 16.4629V17.5627H7.44111V16.3759C7.44111 15.9326 7.21744 15.7068 6.83638 15.7068C6.40976 15.7068 6.13431 15.9844 6.13431 16.4629V17.5627H5.85266V15.4582H6.12603V15.8414C6.20704 15.7122 6.32129 15.6071 6.45682 15.5371C6.59234 15.4672 6.74418 15.4349 6.89644 15.4437C7.05074 15.4315 7.20505 15.4674 7.33817 15.5464C7.47128 15.6254 7.57669 15.7436 7.63992 15.8849C7.72482 15.743 7.84683 15.6269 7.9928 15.5492C8.13876 15.4714 8.30317 15.435 8.46831 15.4437C8.97777 15.4437 9.31327 15.7379 9.31327 16.3386" fill="white"/>
<path d="M13.7349 16.3469V17.5627H13.4512V16.3759C13.4512 15.9326 13.2296 15.7068 12.8506 15.7068C12.4198 15.7068 12.1485 15.9844 12.1485 16.4629V17.5627H11.8669V16.3759C11.8669 15.9326 11.6432 15.7068 11.2622 15.7068C10.8355 15.7068 10.5601 15.9844 10.5601 16.4629V17.5627H10.2784V15.4582H10.5477V15.8414C10.6287 15.7122 10.7429 15.6071 10.8785 15.5371C11.014 15.4672 11.1658 15.4349 11.3181 15.4437C11.4724 15.4315 11.6267 15.4674 11.7598 15.5464C11.8929 15.6254 11.9983 15.7436 12.0616 15.8849C12.1465 15.743 12.2685 15.6269 12.4144 15.5492C12.5604 15.4714 12.7248 15.435 12.89 15.4437C13.3994 15.4437 13.7349 15.7379 13.7349 16.3386" fill="white"/>
<path d="M16.5886 15.459V17.5552H16.3174V17.172C16.2402 17.3008 16.1295 17.4063 15.9971 17.477C15.8647 17.5478 15.7155 17.5813 15.5656 17.5738C15.0313 17.5738 14.6813 17.2756 14.6813 16.6749V15.459H14.965V16.6459C14.965 17.0933 15.1949 17.3191 15.5863 17.3191C16.0253 17.3191 16.3008 17.0374 16.3008 16.5589V15.459H16.5886Z" fill="white"/>
<path d="M19.5088 16.3473V17.5632H19.2251V16.3763C19.2251 15.933 18.9931 15.7073 18.6038 15.7073C18.5036 15.6997 18.403 15.7143 18.309 15.75C18.2151 15.7856 18.1302 15.8415 18.0602 15.9136C17.9903 15.9857 17.9371 16.0724 17.9043 16.1674C17.8715 16.2624 17.86 16.3634 17.8706 16.4633V17.5632H17.589V15.4587H17.8603V15.846C17.9449 15.7142 18.0633 15.6074 18.2032 15.5367C18.343 15.4661 18.4992 15.4341 18.6555 15.4442C19.165 15.4442 19.5171 15.7383 19.5171 16.339" fill="white"/>
<path d="M20.4159 14.8058C20.4159 14.7508 20.4377 14.6981 20.4766 14.6593C20.5154 14.6205 20.5681 14.5986 20.623 14.5986C20.6758 14.5985 20.7267 14.6186 20.7652 14.6548C20.8037 14.691 20.8269 14.7406 20.8301 14.7933C20.8301 14.8483 20.8083 14.901 20.7694 14.9398C20.7306 14.9786 20.6779 15.0005 20.623 15.0005C20.5681 15.0005 20.5154 14.9786 20.4766 14.9398C20.4377 14.901 20.4159 14.8483 20.4159 14.7933V14.8058ZM20.4801 15.4541H20.7617V17.5503H20.4801V15.4541Z" fill="white"/>
<path d="M21.5342 16.5149C21.5304 16.3729 21.5558 16.2317 21.6089 16.0999C21.662 15.9682 21.7416 15.8487 21.8428 15.7491C21.944 15.6494 22.0646 15.5716 22.1971 15.5206C22.3297 15.4695 22.4713 15.4463 22.6132 15.4523C22.7756 15.4412 22.9381 15.4738 23.0838 15.5466C23.2294 15.6195 23.3529 15.7299 23.4416 15.8666L23.2345 16.0095C23.1673 15.9107 23.0763 15.8304 22.9698 15.7761C22.8634 15.7218 22.745 15.6952 22.6256 15.6988C22.4092 15.6988 22.2016 15.7848 22.0486 15.9378C21.8956 16.0909 21.8096 16.2985 21.8096 16.5149C21.8096 16.7314 21.8956 16.9389 22.0486 17.092C22.2016 17.245 22.4092 17.331 22.6256 17.331C22.7447 17.3353 22.8629 17.3094 22.9693 17.2558C23.0758 17.2022 23.1669 17.1227 23.2345 17.0245L23.4416 17.1674C23.3522 17.3033 23.2285 17.4131 23.083 17.4859C22.9376 17.5586 22.7755 17.5917 22.6132 17.5817C22.4709 17.5877 22.3289 17.5644 22.1961 17.5131C22.0633 17.4617 21.9425 17.3836 21.8412 17.2835C21.74 17.1834 21.6604 17.0635 21.6076 16.9312C21.5548 16.799 21.5298 16.6573 21.5342 16.5149Z" fill="white"/>
<path d="M25.7673 16.2642V17.563H25.496V17.2357C25.4179 17.3526 25.3098 17.4464 25.183 17.5073C25.0562 17.5681 24.9154 17.5938 24.7753 17.5816C24.301 17.5816 24.0111 17.3351 24.0111 16.9726C24.0111 16.6495 24.2182 16.3802 24.8188 16.3802H25.4836V16.2518C25.4836 15.8935 25.2765 15.6987 24.8913 15.6987C24.6367 15.6953 24.3893 15.7827 24.1934 15.9452L24.067 15.7381C24.3098 15.5489 24.6105 15.4494 24.9182 15.4564C25.4608 15.4564 25.7673 15.7257 25.7673 16.2684V16.2642ZM25.4836 16.9374V16.5956H24.8271C24.4129 16.5956 24.2907 16.7531 24.2907 16.9685C24.2907 17.1839 24.4854 17.3641 24.8188 17.3641C24.9606 17.3731 25.1016 17.3366 25.2211 17.2598C25.3407 17.183 25.4327 17.0701 25.4836 16.9374Z" fill="white"/>
<path d="M27.8383 17.4348C27.7126 17.5348 27.5556 17.587 27.3951 17.5819C27.3121 17.5923 27.2278 17.5839 27.1485 17.5572C27.0692 17.5304 26.997 17.4862 26.9373 17.4276C26.8775 17.369 26.8318 17.2977 26.8035 17.219C26.7752 17.1402 26.765 17.0561 26.7738 16.9729V15.7073H26.3989V15.4587H26.7738V15.001H27.0575V15.4587H27.6933V15.699H27.0575V16.9418C27.0501 16.9921 27.0542 17.0433 27.0694 17.0918C27.0847 17.1402 27.1108 17.1846 27.1457 17.2215C27.1806 17.2584 27.2234 17.2869 27.2709 17.3048C27.3184 17.3227 27.3694 17.3297 27.4199 17.325C27.5331 17.3279 27.6435 17.2896 27.7306 17.2173L27.8383 17.4348Z" fill="white"/>
<path d="M28.4927 14.8058C28.4927 14.7508 28.5145 14.6981 28.5533 14.6593C28.5922 14.6205 28.6448 14.5986 28.6998 14.5986C28.7526 14.5985 28.8035 14.6186 28.842 14.6548C28.8805 14.691 28.9037 14.7406 28.9069 14.7933C28.9069 14.8483 28.8851 14.901 28.8462 14.9398C28.8074 14.9786 28.7547 15.0005 28.6998 15.0005C28.6448 15.0005 28.5922 14.9786 28.5533 14.9398C28.5145 14.901 28.4927 14.8483 28.4927 14.7933V14.8058ZM28.5569 15.4541H28.8385V17.5503H28.5569V15.4541Z" fill="white"/>
<path d="M29.609 16.514C29.609 16.3031 29.6715 16.097 29.7886 15.9216C29.9057 15.7462 30.0722 15.6095 30.2669 15.5287C30.4617 15.4479 30.676 15.4266 30.8829 15.4676C31.0897 15.5086 31.2798 15.61 31.429 15.759C31.5782 15.908 31.68 16.0978 31.7214 16.3046C31.7627 16.5114 31.7419 16.7258 31.6615 16.9208C31.5811 17.1158 31.4447 17.2825 31.2696 17.4C31.0945 17.5174 30.8885 17.5803 30.6776 17.5808C30.5362 17.5853 30.3954 17.5609 30.2638 17.509C30.1322 17.457 30.0126 17.3786 29.9125 17.2787C29.8124 17.1787 29.7338 17.0593 29.6816 16.9278C29.6294 16.7963 29.6047 16.6554 29.609 16.514ZM31.4542 16.514C31.4469 16.3617 31.3951 16.2149 31.3051 16.0917C31.2152 15.9686 31.091 15.8746 30.9481 15.8214C30.8052 15.7682 30.6499 15.7581 30.5013 15.7924C30.3528 15.8267 30.2175 15.9039 30.1124 16.0144C30.0073 16.1248 29.9369 16.2637 29.91 16.4138C29.8831 16.5639 29.9008 16.7186 29.961 16.8587C30.0212 16.9989 30.1212 17.1182 30.2486 17.202C30.376 17.2858 30.5252 17.3304 30.6776 17.3301C30.7835 17.3321 30.8887 17.312 30.9864 17.2712C31.0842 17.2303 31.1723 17.1696 31.2454 17.0929C31.3184 17.0161 31.3747 16.925 31.4106 16.8254C31.4466 16.7257 31.4614 16.6197 31.4542 16.514Z" fill="white"/>
<path d="M34.4426 16.3473V17.5632H34.161V16.3763C34.161 15.933 33.929 15.7072 33.5397 15.7072C33.4395 15.6997 33.3389 15.7143 33.245 15.7499C33.151 15.7856 33.0661 15.8415 32.9961 15.9136C32.9262 15.9857 32.873 16.0724 32.8402 16.1673C32.8074 16.2623 32.7959 16.3634 32.8066 16.4633V17.5632H32.5249V15.4587H32.7941V15.846C32.8793 15.7142 32.9981 15.6074 33.1382 15.5368C33.2784 15.4661 33.4348 15.4342 33.5915 15.4442C34.1009 15.4442 34.4509 15.7383 34.4509 16.339" fill="white"/>
<path d="M38.2263 16.2642V17.563H37.955V17.2357C37.8767 17.3525 37.7686 17.4462 37.6418 17.507C37.5151 17.5678 37.3744 17.5936 37.2343 17.5816C36.76 17.5816 36.4701 17.3351 36.4701 16.9726C36.4701 16.6495 36.6772 16.3802 37.2778 16.3802H37.9426V16.2518C37.9426 15.8935 37.7355 15.6987 37.3503 15.6987C37.0957 15.6953 36.8483 15.7827 36.6523 15.9452L36.526 15.7381C36.7688 15.5489 37.0695 15.4494 37.3772 15.4564C37.9198 15.4564 38.2263 15.7257 38.2263 16.2684V16.2642ZM37.9426 16.9374V16.5956H37.2943C36.8801 16.5956 36.7559 16.7531 36.7559 16.9685C36.7559 17.1839 36.9506 17.3641 37.2861 17.3641C37.4278 17.3728 37.5686 17.3361 37.6881 17.2594C37.8077 17.1827 37.8997 17.0699 37.9509 16.9374" fill="white"/>
<path d="M41.1485 15.459V17.3004C41.1485 18.0213 40.7944 18.3485 40.1006 18.3485C39.7471 18.3622 39.4006 18.2474 39.1252 18.0254L39.2681 17.8183C39.5011 18.0097 39.795 18.1111 40.0965 18.1041C40.6246 18.1041 40.869 17.8618 40.869 17.3439V17.0767C40.779 17.2096 40.6567 17.3173 40.5136 17.3898C40.3704 17.4623 40.2112 17.4971 40.0509 17.491C39.7818 17.491 39.5237 17.384 39.3334 17.1937C39.143 17.0034 39.0361 16.7452 39.0361 16.476C39.0361 16.2068 39.143 15.9487 39.3334 15.7583C39.5237 15.568 39.7818 15.4611 40.0509 15.4611C40.2129 15.4531 40.3743 15.4871 40.5194 15.5596C40.6645 15.6322 40.7884 15.7409 40.8793 15.8753V15.459H41.1485ZM40.8731 16.4553C40.8785 16.297 40.8364 16.1406 40.7524 16.0063C40.6683 15.872 40.546 15.7659 40.4013 15.7015C40.2565 15.6372 40.0958 15.6175 39.9399 15.6451C39.7839 15.6727 39.6396 15.7463 39.5257 15.8563C39.4118 15.9664 39.3333 16.108 39.3004 16.263C39.2675 16.418 39.2816 16.5793 39.3409 16.7262C39.4002 16.8731 39.502 16.999 39.6333 17.0876C39.7646 17.1763 39.9194 17.2237 40.0778 17.2238C40.1817 17.2305 40.2858 17.2154 40.3836 17.1795C40.4813 17.1436 40.5704 17.0877 40.6453 17.0153C40.7201 16.943 40.7791 16.8558 40.8183 16.7594C40.8575 16.6629 40.8762 16.5594 40.8731 16.4553Z" fill="white"/>
<path d="M43.9629 16.601H42.2108C42.2169 16.7034 42.2432 16.8037 42.2882 16.8959C42.3332 16.9881 42.396 17.0705 42.473 17.1383C42.5501 17.2061 42.6398 17.2579 42.7369 17.2909C42.8341 17.3238 42.9369 17.3371 43.0392 17.3301C43.1597 17.334 43.2795 17.3115 43.3904 17.2643C43.5013 17.2171 43.6005 17.1462 43.6812 17.0567L43.8407 17.239C43.6902 17.3962 43.4967 17.5055 43.2844 17.5535C43.0721 17.6014 42.8504 17.5857 42.6469 17.5084C42.4435 17.431 42.2673 17.2955 42.1404 17.1187C42.0135 16.9418 41.9415 16.7315 41.9333 16.514C41.9256 16.3758 41.9465 16.2374 41.9947 16.1076C42.0428 15.9778 42.1172 15.8594 42.2133 15.7596C42.3093 15.6599 42.4248 15.5811 42.5527 15.528C42.6806 15.475 42.818 15.4489 42.9564 15.4514C43.0945 15.4485 43.2318 15.4744 43.3594 15.5274C43.487 15.5804 43.6021 15.6594 43.6976 15.7593C43.793 15.8593 43.8666 15.978 43.9137 16.1079C43.9608 16.2378 43.9804 16.3761 43.9712 16.514C43.9712 16.5389 43.9712 16.5699 43.9712 16.601H43.9629ZM42.2191 16.3939H43.7061C43.6921 16.2062 43.6077 16.0308 43.4698 15.9028C43.3319 15.7748 43.1507 15.7037 42.9626 15.7037C42.7745 15.7037 42.5933 15.7748 42.4554 15.9028C42.3175 16.0308 42.2331 16.2062 42.2191 16.3939Z" fill="white"/>
<path d="M46.6716 16.3473V17.5632H46.3879V16.3763C46.3879 15.933 46.158 15.7072 45.7666 15.7072C45.6666 15.7 45.5662 15.7148 45.4725 15.7506C45.3789 15.7864 45.2942 15.8423 45.2245 15.9144C45.1548 15.9865 45.1017 16.073 45.0691 16.1679C45.0364 16.2627 45.025 16.3635 45.0356 16.4633V17.5632H44.7518V15.4587H45.0231V15.846C45.1083 15.7142 45.2271 15.6074 45.3672 15.5368C45.5074 15.4661 45.6638 15.4342 45.8205 15.4442C46.3299 15.4442 46.6799 15.7383 46.6799 16.339" fill="white"/>
<path d="M47.4359 16.5149C47.4321 16.3729 47.4575 16.2317 47.5106 16.0999C47.5637 15.9682 47.6433 15.8487 47.7445 15.7491C47.8457 15.6494 47.9663 15.5716 48.0989 15.5206C48.2314 15.4695 48.373 15.4463 48.5149 15.4523C48.6774 15.4412 48.8398 15.4738 48.9855 15.5466C49.1311 15.6195 49.2547 15.7299 49.3433 15.8666L49.1362 16.0095C49.069 15.9107 48.978 15.8304 48.8716 15.7761C48.7652 15.7218 48.6467 15.6952 48.5273 15.6988C48.3109 15.6988 48.1034 15.7848 47.9504 15.9378C47.7973 16.0909 47.7114 16.2985 47.7114 16.5149C47.7114 16.7314 47.7973 16.9389 47.9504 17.092C48.1034 17.245 48.3109 17.331 48.5273 17.331C48.6464 17.3353 48.7646 17.3094 48.8711 17.2558C48.9775 17.2022 49.0687 17.1227 49.1362 17.0245L49.3433 17.1674C49.2539 17.3033 49.1302 17.4131 48.9848 17.4859C48.8393 17.5586 48.6772 17.5917 48.5149 17.5817C48.3726 17.5877 48.2307 17.5644 48.0979 17.5131C47.965 17.4617 47.8442 17.3836 47.743 17.2835C47.6417 17.1834 47.5622 17.0635 47.5093 16.9312C47.4565 16.799 47.4315 16.6573 47.4359 16.5149Z" fill="white"/>
<path d="M51.8161 15.459L50.7682 17.8058C50.5921 18.2201 50.3705 18.3465 50.0723 18.3465C49.8833 18.3531 49.6994 18.2846 49.5608 18.1559L49.6933 17.9487C49.7426 18 49.8018 18.0405 49.8673 18.068C49.9329 18.0954 50.0033 18.1091 50.0744 18.1082C50.2629 18.1082 50.3892 18.0212 50.5093 17.7582L50.6004 17.5511L49.6643 15.459H49.9605L50.7475 17.2403L51.5365 15.459H51.8161Z" fill="white"/>
<path d="M6.19443 2.71061C6.76751 2.95578 7.25633 3.36332 7.60063 3.883C7.92366 4.42707 8.09414 5.04816 8.09414 5.68093C8.09414 6.31371 7.92366 6.93479 7.60063 7.47886C7.25932 8.00121 6.7696 8.4095 6.19443 8.65125C5.51364 8.93941 4.7797 9.08058 4.04061 9.06552H2.16016V11.6381H0.00012207V2.29634H4.04061C4.77989 2.27901 5.51431 2.42027 6.19443 2.71061ZM5.40124 6.87817C5.57184 6.73171 5.70637 6.54787 5.79437 6.34094C5.88237 6.13401 5.92147 5.90958 5.90863 5.68508C5.92214 5.45867 5.88341 5.2322 5.79543 5.02316C5.70745 4.81412 5.57258 4.62812 5.40124 4.47955C5.06436 4.20337 4.57078 4.06528 3.92049 4.06528H2.16016V7.30694H3.92049C4.57078 7.30694 5.06436 7.16885 5.40124 6.89267" fill="white"/>
<path d="M14.8698 5.14565C15.4648 5.67316 15.7624 6.47132 15.7624 7.54013V11.6352H13.8156V10.7404C13.4249 11.4073 12.6959 11.7408 11.6287 11.7408C11.1364 11.7526 10.6474 11.6572 10.1956 11.4612C9.81797 11.298 9.49572 11.029 9.26777 10.6865C9.05313 10.3527 8.94215 9.96275 8.94884 9.56591C8.93685 9.26225 8.99927 8.96027 9.13066 8.68626C9.26205 8.41225 9.45842 8.17451 9.70268 7.99376C10.2039 7.61125 10.9791 7.42 12.0284 7.42H13.6852C13.6971 7.22562 13.6661 7.031 13.5946 6.84989C13.523 6.66878 13.4125 6.5056 13.271 6.37189C12.9948 6.12747 12.5806 6.00526 12.0284 6.00526C11.6457 6.00543 11.2654 6.06625 10.9018 6.18547C10.5619 6.29042 10.2435 6.45527 9.96155 6.67224L9.21599 5.22229C9.64421 4.92924 10.12 4.71269 10.6222 4.58224C11.1713 4.43102 11.7384 4.35506 12.308 4.35646C13.4208 4.35646 14.2747 4.62091 14.8698 5.14979V5.14565ZM13.0949 10.0983C13.3706 9.93287 13.5789 9.67535 13.6831 9.37121V8.63795H12.2562C11.403 8.63795 10.9763 8.91758 10.9763 9.47685C10.9722 9.6001 10.9985 9.72246 11.0531 9.83305C11.1076 9.94364 11.1887 10.039 11.289 10.1107C11.5428 10.2794 11.8443 10.3615 12.1485 10.3447C12.4806 10.3507 12.8079 10.2654 13.0949 10.0983Z" fill="white"/>
<path d="M37.3607 8.63345H31.9326C32.02 9.06039 32.2684 9.43724 32.6264 9.6857C33.0277 9.95518 33.504 10.0908 33.987 10.073C34.3257 10.0785 34.6625 10.0224 34.9811 9.90734C35.2823 9.78703 35.5563 9.6074 35.7867 9.37914L36.8947 10.5805C36.2182 11.3538 35.231 11.7405 33.9332 11.7405C33.1904 11.7556 32.4548 11.593 31.7876 11.2661C31.1879 10.9773 30.6845 10.5213 30.338 9.95291C29.9953 9.37633 29.8196 8.71584 29.8306 8.04519C29.8214 7.3782 29.9947 6.7214 30.3317 6.14576C30.6593 5.58739 31.1344 5.13014 31.7048 4.82424C32.3057 4.50495 32.9774 4.34251 33.6577 4.35197C34.3213 4.34246 34.9768 4.49836 35.5651 4.8056C36.1279 5.1008 36.5932 5.55257 36.905 6.10641C37.239 6.70674 37.407 7.38527 37.3917 8.07212C37.3917 8.09905 37.3793 8.27925 37.3524 8.63345H37.3607ZM32.4856 6.32597C32.1591 6.60342 31.9497 6.99414 31.8995 7.41965H35.4326C35.3776 6.99694 35.168 6.60956 34.8444 6.33219C34.5176 6.05509 34.1005 5.90767 33.6722 5.91791C33.2414 5.9035 32.8199 6.04549 32.4856 6.31768" fill="white"/>
<path d="M41.7801 4.61951C42.2446 4.43318 42.7418 4.34231 43.2422 4.35231V6.27245C43.0102 6.25381 42.8549 6.24552 42.7741 6.24552C42.5191 6.23106 42.2638 6.26798 42.0233 6.35408C41.7828 6.44019 41.5621 6.57373 41.3741 6.74679C41.0373 7.08097 40.8681 7.58085 40.8668 8.24645V11.6331H38.7958V4.45794H40.7818V5.40455C41.037 5.05357 41.3858 4.78151 41.7883 4.61951" fill="white"/>
<path d="M50.9959 5.15136C51.5482 5.68577 51.8243 6.47703 51.8243 7.52513V11.6326H49.7347V7.84619C49.7347 7.27726 49.6104 6.85263 49.3619 6.57231C49.2231 6.42874 49.0546 6.31726 48.8683 6.2457C48.6819 6.17414 48.4821 6.14422 48.2829 6.15804C48.0513 6.14682 47.8199 6.18435 47.6037 6.2682C47.3876 6.35205 47.1914 6.48035 47.0279 6.64481C46.7172 6.9707 46.5619 7.45402 46.5619 8.09476V11.6409H44.4806V4.45746H46.4687V5.30879C46.7553 4.99868 47.1097 4.75906 47.5042 4.60867C47.9327 4.4399 48.3899 4.35618 48.8504 4.36218C49.2445 4.34501 49.6382 4.40691 50.0081 4.54422C50.378 4.68153 50.7167 4.89148 51.0042 5.16172" fill="white"/>
<path d="M20.7368 1.35674C20.7368 1.62516 20.6572 1.88756 20.508 2.11072C20.3589 2.33387 20.1469 2.50777 19.8989 2.6104C19.6509 2.71302 19.3781 2.73977 19.1149 2.68725C18.8517 2.63473 18.61 2.50531 18.4204 2.31536C18.2308 2.12541 18.1017 1.88347 18.0496 1.62015C17.9975 1.35683 18.0247 1.08398 18.1277 0.836103C18.2306 0.588228 18.4048 0.376477 18.6282 0.227646C18.8515 0.0788154 19.114 -0.000408227 19.3824 1.58189e-06C19.5604 1.37372e-06 19.7367 0.0351118 19.9012 0.103319C20.0656 0.171527 20.215 0.271496 20.3408 0.397508C20.4666 0.52352 20.5663 0.673101 20.6343 0.837696C20.7022 1.00229 20.7371 1.17867 20.7368 1.35674Z" fill="white"/>
<path d="M27.1714 1.35674C27.171 1.62457 27.0912 1.88628 26.9421 2.10878C26.793 2.33128 26.5813 2.50459 26.3338 2.6068C26.0863 2.70902 25.814 2.73555 25.5514 2.68305C25.2888 2.63054 25.0477 2.50136 24.8585 2.31183C24.6693 2.12229 24.5405 1.88091 24.4884 1.61819C24.4363 1.35546 24.4632 1.08319 24.5658 0.835782C24.6684 0.58837 24.842 0.376921 25.0647 0.22816C25.2874 0.0793987 25.5492 3.13105e-07 25.8169 0C25.995 -2.08165e-07 26.1713 0.0351102 26.3357 0.103318C26.5002 0.171526 26.6496 0.271495 26.7754 0.397506C26.9012 0.523518 27.0009 0.673099 27.0689 0.837694C27.1368 1.00229 27.1716 1.17866 27.1714 1.35674Z" fill="white"/>
<path d="M28.7308 9.6072C28.4624 9.80819 28.134 9.91257 27.7989 9.9034C27.664 9.91171 27.5289 9.89168 27.4023 9.84458C27.2757 9.79749 27.1603 9.72438 27.0637 9.62998C26.88 9.41361 26.7872 9.13447 26.8048 8.85115V5.60534H28.3166V3.82812H16.7191V5.60534H18.2309V8.88015C18.2309 9.81778 18.4898 10.5289 19.0076 11.0136C19.5253 11.4983 20.2591 11.7407 21.209 11.7407C21.5581 11.7419 21.9059 11.6994 22.2445 11.6143C22.5426 11.5441 22.8241 11.416 23.0729 11.2373L22.4516 9.6072C22.1826 9.80849 21.8534 9.91288 21.5176 9.9034C21.383 9.91193 21.2482 9.89199 21.1219 9.84488C20.9955 9.79777 20.8806 9.72454 20.7845 9.62998C20.6 9.41404 20.5071 9.13459 20.5256 8.85115V5.60534H24.4812V8.88015C24.4812 9.81778 24.7407 10.5289 25.2598 11.0136C25.779 11.4983 26.5121 11.7407 27.4592 11.7407C27.8083 11.7421 28.1562 11.6997 28.4947 11.6143C28.7963 11.5447 29.0812 11.4166 29.3335 11.2373L28.7308 9.6072Z" fill="white"/>
</svg>
