<svg width="19" height="22" viewBox="0 0 19 22" fill="none" xmlns="http://www.w3.org/2000/svg">
<path d="M18.8161 19.4824C17.8711 21.5208 15.1512 22.0337 14.6524 20.0997C14.3651 18.9858 12.6656 18.2563 11.9826 20.3858C11.4422 22.0704 7.69173 22.1657 7.53281 19.1426C7.45949 17.7477 6.19788 17.5498 5.43507 19.1426C4.67225 20.7354 3.43267 21.0533 2.3838 21.0533C1.33493 21.0533 0 20.0044 0 18.0974C0 16.1903 1.11525 14.0538 1.43029 11.963C1.87658 8.93145 1.95928 5.36979 3.92822 2.91316C7.39356 -1.39901 13.4054 -0.745654 16.4769 3.69719C18.2359 6.23223 17.6747 10.1802 17.9898 13.1073C18.1473 14.4662 19.4793 18.0521 18.8161 19.4824Z" fill="white"/>
<path d="M9.16708 13.4155C8.76052 13.2854 8.24674 12.9943 8.15292 12.7341C7.77427 11.9746 7.99748 11.2851 8.96698 11.3892C9.55459 11.4673 10.1991 11.464 10.4806 11.438C11.0748 11.36 11.5434 11.1083 11.731 11.7848C11.8874 12.3832 11.4188 12.9992 10.5431 13.3895C10.1366 13.5456 9.66747 13.5716 9.16708 13.4155Z" fill="#252C36"/>
<path d="M8.86719 13.1718C8.99041 13.2228 9.08283 13.2993 9.20605 13.3247C9.72976 13.4776 10.161 13.4522 10.5615 13.2738C10.6847 13.2228 10.7772 13.1718 10.8696 13.1209C10.8388 13.0954 10.8388 13.0444 10.7772 12.9935C10.7156 12.8915 10.4999 12.7896 10.2535 12.7641C9.9454 12.7131 9.69895 12.7131 9.48331 12.7641C9.11364 12.866 8.89799 13.0189 8.86719 13.1718Z" fill="#DD0B2B"/>
<path d="M9.35636 11.5538C9.04595 11.5211 8.73554 11.4993 8.61913 11.4925C8.49497 11.4843 8.37339 11.53 8.32812 11.5538C8.42513 11.6833 8.87134 11.9463 9.88018 11.9626C10.889 11.979 11.2576 11.6151 11.3158 11.4312C11.2835 11.4176 11.1412 11.4107 10.8308 11.4925C10.4428 11.5947 9.74437 11.5947 9.35636 11.5538Z" fill="white"/>
<path d="M6.10196 10.4374C6.62857 10.4374 7.05548 10.0105 7.05548 9.48385C7.05548 8.95724 6.62857 8.53033 6.10196 8.53033C5.57534 8.53033 5.14844 8.95724 5.14844 9.48385C5.14844 10.0105 5.57534 10.4374 6.10196 10.4374Z" fill="#252C36"/>
<path d="M13.9848 10.4374C14.5114 10.4374 14.9383 10.0105 14.9383 9.48385C14.9383 8.95724 14.5114 8.53033 13.9848 8.53033C13.4582 8.53033 13.0312 8.95724 13.0312 9.48385C13.0312 10.0105 13.4582 10.4374 13.9848 10.4374Z" fill="#252C36"/>
<path d="M5.76928 9.57927C5.95359 9.57927 6.10301 9.42985 6.10301 9.24554C6.10301 9.06122 5.95359 8.9118 5.76928 8.9118C5.58496 8.9118 5.43555 9.06122 5.43555 9.24554C5.43555 9.42985 5.58496 9.57927 5.76928 9.57927Z" fill="white"/>
<path d="M13.6521 9.57927C13.8364 9.57927 13.9858 9.42985 13.9858 9.24554C13.9858 9.06122 13.8364 8.9118 13.6521 8.9118C13.4678 8.9118 13.3184 9.06122 13.3184 9.24554C13.3184 9.42985 13.4678 9.57927 13.6521 9.57927Z" fill="white"/>
</svg>
