<svg width="31" height="21" viewBox="0 0 31 21" fill="none" xmlns="http://www.w3.org/2000/svg">
<path d="M30.8103 9.70156C27.8931 3.91562 22.1127 0 15.498 0C8.88329 0 3.10283 3.91562 0.185685 9.70156C-0.0618951 10.2047 -0.0618951 10.7953 0.185685 11.2984C3.10283 17.0844 8.88329 21 15.498 21C22.1127 21 27.8931 17.0844 30.8103 11.2984C31.0632 10.7953 31.0632 10.2047 30.8103 9.70156ZM15.498 18.375C11.2192 18.375 7.74765 14.8477 7.74765 10.5C7.74765 6.15234 11.2192 2.625 15.498 2.625C19.7768 2.625 23.2483 6.15234 23.2483 10.5C23.2483 14.8477 19.7822 18.375 15.5034 18.375H15.498ZM15.498 5.25C15.0351 5.25547 14.5776 5.32656 14.1363 5.45781C14.9813 6.62266 14.7337 8.25781 13.5873 9.11641C12.6777 9.79453 11.4398 9.79453 10.5356 9.11641C9.78749 11.9109 11.4129 14.7875 14.1578 15.5422C16.9081 16.3023 19.7391 14.6508 20.4819 11.8617C21.23 9.06719 19.6046 6.19062 16.8597 5.43594C16.4183 5.31016 15.9555 5.25 15.498 5.25Z" fill="#ABABAB"/>
</svg>
