<svg width="408" height="383" viewBox="0 0 408 383" fill="none" xmlns="http://www.w3.org/2000/svg">
<path d="M334.173 118.019C365.082 139.942 390.458 169.395 407.68 203.84C369.824 279.469 292.739 331.261 203.84 331.261C178.922 331.261 154.96 327.184 132.496 319.696L163.53 288.662C176.675 291.574 190.195 293.072 203.84 293.072C239.491 293.072 274.269 282.922 304.346 263.744C328.307 248.477 348.608 228.01 363.834 203.923C349.066 180.586 329.597 160.701 306.634 145.6L334.173 118.019ZM203.84 277.888C194.813 277.888 186.035 276.682 177.674 274.477L302.349 149.802C304.554 158.163 305.76 166.899 305.76 175.968C305.76 232.253 260.125 277.888 203.84 277.888ZM382.221 0H360.838L273.354 87.4432C251.43 80.288 228.051 76.4608 203.84 76.4608C114.941 76.4608 37.856 128.253 0 203.84C16.9728 237.744 41.8496 266.864 72.1344 288.662L0 360.797V382.179H21.3824L382.221 21.424V0ZM165.61 125.008C184.746 125.008 200.595 139.069 203.382 157.414L159.786 201.011C141.44 198.224 127.379 182.374 127.379 163.238C127.421 142.147 144.518 125.008 165.61 125.008ZM43.8464 203.84C59.072 179.754 79.3728 159.286 103.334 144.019C104.915 143.021 106.454 142.064 108.077 141.107C104.125 152.006 101.962 163.738 101.962 175.968C101.962 199.264 109.782 220.73 122.928 237.91L99.632 261.206C77.2512 246.23 58.2816 226.678 43.8464 203.84Z" fill="#ABABAB"/>
</svg>
