<svg width="28" height="28" viewBox="0 0 28 28" fill="none" xmlns="http://www.w3.org/2000/svg">
<path d="M1.37869 14.9809C0.848308 14.9809 0.406993 14.5396 0.397789 14C0.407129 13.4603 0.83928 13.0281 1.37894 13.0188L13.1624 13.0272L13.1639 1.23387C13.1639 0.703483 13.6054 0.262058 14.1351 0.262609C14.6841 0.26254 15.126 0.704472 15.116 1.24351L15.1152 13.0177L26.8986 13.0261C27.4383 13.0168 27.8796 13.4581 27.8795 14.007C27.8795 14.5374 27.438 14.9788 26.9083 14.9783L15.1149 14.9797L15.1233 26.7632C15.114 27.3029 14.6818 27.735 14.1422 27.7443C13.6025 27.7351 13.1606 27.2932 13.1613 26.7634L13.1529 14.98L1.37869 14.9809Z" fill="#F5F8FB"/>
</svg>
